ISO-10303-21;
HEADER;
/* Generated by software containing ST-Developer
 * from STEP Tools, Inc. (www.steptools.com) 
 */

FILE_DESCRIPTION(
/* description */ (''),
/* implementation_level */ '2;1');

FILE_NAME(
/* name */ 'SabhyaPad Case.step',
/* time_stamp */ '2026-05-26T13:02:27+05:30',
/* author */ (''),
/* organization */ (''),
/* preprocessor_version */ 'ST-DEVELOPER v20.1',
/* originating_system */ 'Autodesk Translation Framework v15.8.0.0',
/* authorisation */ '');

FILE_SCHEMA (('AUTOMOTIVE_DESIGN { 1 0 10303 214 3 1 1 }'));
ENDSEC;

DATA;
#10=MECHANICAL_DESIGN_GEOMETRIC_PRESENTATION_REPRESENTATION('',(#13),#623);
#11=SHAPE_REPRESENTATION_RELATIONSHIP('SRR','None',#630,#12);
#12=ADVANCED_BREP_SHAPE_REPRESENTATION('',(#14),#622);
#13=STYLED_ITEM('',(#639),#14);
#14=MANIFOLD_SOLID_BREP('Body14',#379);
#15=FACE_BOUND('',#70,.T.);
#16=FACE_BOUND('',#71,.T.);
#17=FACE_BOUND('',#72,.T.);
#18=FACE_BOUND('',#73,.T.);
#19=FACE_BOUND('',#76,.T.);
#20=FACE_BOUND('',#82,.T.);
#21=FACE_BOUND('',#83,.T.);
#22=FACE_BOUND('',#84,.T.);
#23=FACE_BOUND('',#85,.T.);
#24=FACE_BOUND('',#86,.T.);
#25=CIRCLE('',#398,1.45);
#26=CIRCLE('',#399,1.45);
#27=CIRCLE('',#401,1.45);
#28=CIRCLE('',#402,1.45);
#29=CIRCLE('',#404,1.45);
#30=CIRCLE('',#405,1.45);
#31=CIRCLE('',#407,1.45);
#32=CIRCLE('',#408,1.45);
#33=CYLINDRICAL_SURFACE('',#397,1.45);
#34=CYLINDRICAL_SURFACE('',#400,1.45);
#35=CYLINDRICAL_SURFACE('',#403,1.45);
#36=CYLINDRICAL_SURFACE('',#406,1.45);
#37=FACE_OUTER_BOUND('',#57,.T.);
#38=FACE_OUTER_BOUND('',#58,.T.);
#39=FACE_OUTER_BOUND('',#59,.T.);
#40=FACE_OUTER_BOUND('',#60,.T.);
#41=FACE_OUTER_BOUND('',#61,.T.);
#42=FACE_OUTER_BOUND('',#62,.T.);
#43=FACE_OUTER_BOUND('',#63,.T.);
#44=FACE_OUTER_BOUND('',#64,.T.);
#45=FACE_OUTER_BOUND('',#65,.T.);
#46=FACE_OUTER_BOUND('',#66,.T.);
#47=FACE_OUTER_BOUND('',#67,.T.);
#48=FACE_OUTER_BOUND('',#68,.T.);
#49=FACE_OUTER_BOUND('',#69,.T.);
#50=FACE_OUTER_BOUND('',#74,.T.);
#51=FACE_OUTER_BOUND('',#75,.T.);
#52=FACE_OUTER_BOUND('',#77,.T.);
#53=FACE_OUTER_BOUND('',#78,.T.);
#54=FACE_OUTER_BOUND('',#79,.T.);
#55=FACE_OUTER_BOUND('',#80,.T.);
#56=FACE_OUTER_BOUND('',#81,.T.);
#57=EDGE_LOOP('',(#247,#248,#249,#250));
#58=EDGE_LOOP('',(#251,#252,#253,#254));
#59=EDGE_LOOP('',(#255,#256,#257,#258));
#60=EDGE_LOOP('',(#259,#260,#261,#262));
#61=EDGE_LOOP('',(#263,#264,#265,#266));
#62=EDGE_LOOP('',(#267,#268,#269,#270));
#63=EDGE_LOOP('',(#271,#272,#273,#274));
#64=EDGE_LOOP('',(#275,#276,#277,#278));
#65=EDGE_LOOP('',(#279,#280,#281,#282));
#66=EDGE_LOOP('',(#283,#284,#285,#286));
#67=EDGE_LOOP('',(#287,#288,#289,#290));
#68=EDGE_LOOP('',(#291,#292,#293,#294));
#69=EDGE_LOOP('',(#295,#296,#297,#298));
#70=EDGE_LOOP('',(#299));
#71=EDGE_LOOP('',(#300));
#72=EDGE_LOOP('',(#301));
#73=EDGE_LOOP('',(#302));
#74=EDGE_LOOP('',(#303,#304,#305,#306));
#75=EDGE_LOOP('',(#307,#308,#309,#310));
#76=EDGE_LOOP('',(#311,#312,#313,#314));
#77=EDGE_LOOP('',(#315,#316,#317,#318));
#78=EDGE_LOOP('',(#319,#320,#321,#322));
#79=EDGE_LOOP('',(#323,#324,#325,#326));
#80=EDGE_LOOP('',(#327,#328,#329,#330));
#81=EDGE_LOOP('',(#331,#332,#333,#334));
#82=EDGE_LOOP('',(#335));
#83=EDGE_LOOP('',(#336));
#84=EDGE_LOOP('',(#337));
#85=EDGE_LOOP('',(#338));
#86=EDGE_LOOP('',(#339,#340,#341,#342));
#87=LINE('',#523,#127);
#88=LINE('',#525,#128);
#89=LINE('',#527,#129);
#90=LINE('',#528,#130);
#91=LINE('',#531,#131);
#92=LINE('',#533,#132);
#93=LINE('',#534,#133);
#94=LINE('',#537,#134);
#95=LINE('',#539,#135);
#96=LINE('',#540,#136);
#97=LINE('',#542,#137);
#98=LINE('',#543,#138);
#99=LINE('',#548,#139);
#100=LINE('',#554,#140);
#101=LINE('',#560,#141);
#102=LINE('',#566,#142);
#103=LINE('',#571,#143);
#104=LINE('',#573,#144);
#105=LINE('',#575,#145);
#106=LINE('',#576,#146);
#107=LINE('',#579,#147);
#108=LINE('',#581,#148);
#109=LINE('',#582,#149);
#110=LINE('',#585,#150);
#111=LINE('',#587,#151);
#112=LINE('',#588,#152);
#113=LINE('',#590,#153);
#114=LINE('',#591,#154);
#115=LINE('',#597,#155);
#116=LINE('',#599,#156);
#117=LINE('',#601,#157);
#118=LINE('',#602,#158);
#119=LINE('',#605,#159);
#120=LINE('',#607,#160);
#121=LINE('',#608,#161);
#122=LINE('',#611,#162);
#123=LINE('',#612,#163);
#124=LINE('',#615,#164);
#125=LINE('',#616,#165);
#126=LINE('',#618,#166);
#127=VECTOR('',#425,10.);
#128=VECTOR('',#426,10.);
#129=VECTOR('',#427,10.);
#130=VECTOR('',#428,10.);
#131=VECTOR('',#431,10.);
#132=VECTOR('',#432,10.);
#133=VECTOR('',#433,10.);
#134=VECTOR('',#436,10.);
#135=VECTOR('',#437,10.);
#136=VECTOR('',#438,10.);
#137=VECTOR('',#441,10.);
#138=VECTOR('',#442,10.);
#139=VECTOR('',#447,1.45);
#140=VECTOR('',#454,1.45);
#141=VECTOR('',#461,1.45);
#142=VECTOR('',#468,1.45);
#143=VECTOR('',#473,10.);
#144=VECTOR('',#474,10.);
#145=VECTOR('',#475,10.);
#146=VECTOR('',#476,10.);
#147=VECTOR('',#479,10.);
#148=VECTOR('',#480,10.);
#149=VECTOR('',#481,10.);
#150=VECTOR('',#484,10.);
#151=VECTOR('',#485,10.);
#152=VECTOR('',#486,10.);
#153=VECTOR('',#489,10.);
#154=VECTOR('',#490,10.);
#155=VECTOR('',#497,10.);
#156=VECTOR('',#498,10.);
#157=VECTOR('',#499,10.);
#158=VECTOR('',#500,10.);
#159=VECTOR('',#503,10.);
#160=VECTOR('',#504,10.);
#161=VECTOR('',#505,10.);
#162=VECTOR('',#508,10.);
#163=VECTOR('',#509,10.);
#164=VECTOR('',#512,10.);
#165=VECTOR('',#513,10.);
#166=VECTOR('',#516,10.);
#167=VERTEX_POINT('',#521);
#168=VERTEX_POINT('',#522);
#169=VERTEX_POINT('',#524);
#170=VERTEX_POINT('',#526);
#171=VERTEX_POINT('',#530);
#172=VERTEX_POINT('',#532);
#173=VERTEX_POINT('',#536);
#174=VERTEX_POINT('',#538);
#175=VERTEX_POINT('',#545);
#176=VERTEX_POINT('',#547);
#177=VERTEX_POINT('',#551);
#178=VERTEX_POINT('',#553);
#179=VERTEX_POINT('',#557);
#180=VERTEX_POINT('',#559);
#181=VERTEX_POINT('',#563);
#182=VERTEX_POINT('',#565);
#183=VERTEX_POINT('',#569);
#184=VERTEX_POINT('',#570);
#185=VERTEX_POINT('',#572);
#186=VERTEX_POINT('',#574);
#187=VERTEX_POINT('',#578);
#188=VERTEX_POINT('',#580);
#189=VERTEX_POINT('',#584);
#190=VERTEX_POINT('',#586);
#191=VERTEX_POINT('',#595);
#192=VERTEX_POINT('',#596);
#193=VERTEX_POINT('',#598);
#194=VERTEX_POINT('',#600);
#195=VERTEX_POINT('',#604);
#196=VERTEX_POINT('',#606);
#197=VERTEX_POINT('',#610);
#198=VERTEX_POINT('',#614);
#199=EDGE_CURVE('',#167,#168,#87,.T.);
#200=EDGE_CURVE('',#169,#168,#88,.T.);
#201=EDGE_CURVE('',#169,#170,#89,.T.);
#202=EDGE_CURVE('',#170,#167,#90,.T.);
#203=EDGE_CURVE('',#168,#171,#91,.T.);
#204=EDGE_CURVE('',#172,#171,#92,.T.);
#205=EDGE_CURVE('',#172,#169,#93,.T.);
#206=EDGE_CURVE('',#171,#173,#94,.T.);
#207=EDGE_CURVE('',#174,#173,#95,.T.);
#208=EDGE_CURVE('',#174,#172,#96,.T.);
#209=EDGE_CURVE('',#173,#167,#97,.T.);
#210=EDGE_CURVE('',#170,#174,#98,.T.);
#211=EDGE_CURVE('',#175,#175,#25,.T.);
#212=EDGE_CURVE('',#175,#176,#99,.T.);
#213=EDGE_CURVE('',#176,#176,#26,.T.);
#214=EDGE_CURVE('',#177,#177,#27,.T.);
#215=EDGE_CURVE('',#177,#178,#100,.T.);
#216=EDGE_CURVE('',#178,#178,#28,.T.);
#217=EDGE_CURVE('',#179,#179,#29,.T.);
#218=EDGE_CURVE('',#179,#180,#101,.T.);
#219=EDGE_CURVE('',#180,#180,#30,.T.);
#220=EDGE_CURVE('',#181,#181,#31,.T.);
#221=EDGE_CURVE('',#181,#182,#102,.T.);
#222=EDGE_CURVE('',#182,#182,#32,.T.);
#223=EDGE_CURVE('',#183,#184,#103,.T.);
#224=EDGE_CURVE('',#183,#185,#104,.T.);
#225=EDGE_CURVE('',#186,#185,#105,.T.);
#226=EDGE_CURVE('',#184,#186,#106,.T.);
#227=EDGE_CURVE('',#184,#187,#107,.T.);
#228=EDGE_CURVE('',#188,#186,#108,.T.);
#229=EDGE_CURVE('',#187,#188,#109,.T.);
#230=EDGE_CURVE('',#187,#189,#110,.T.);
#231=EDGE_CURVE('',#190,#188,#111,.T.);
#232=EDGE_CURVE('',#189,#190,#112,.T.);
#233=EDGE_CURVE('',#189,#183,#113,.T.);
#234=EDGE_CURVE('',#185,#190,#114,.T.);
#235=EDGE_CURVE('',#191,#192,#115,.T.);
#236=EDGE_CURVE('',#193,#191,#116,.T.);
#237=EDGE_CURVE('',#194,#193,#117,.T.);
#238=EDGE_CURVE('',#192,#194,#118,.T.);
#239=EDGE_CURVE('',#191,#195,#119,.T.);
#240=EDGE_CURVE('',#196,#195,#120,.T.);
#241=EDGE_CURVE('',#193,#196,#121,.T.);
#242=EDGE_CURVE('',#192,#197,#122,.T.);
#243=EDGE_CURVE('',#195,#197,#123,.T.);
#244=EDGE_CURVE('',#198,#196,#124,.T.);
#245=EDGE_CURVE('',#194,#198,#125,.T.);
#246=EDGE_CURVE('',#197,#198,#126,.T.);
#247=ORIENTED_EDGE('',*,*,#199,.T.);
#248=ORIENTED_EDGE('',*,*,#200,.F.);
#249=ORIENTED_EDGE('',*,*,#201,.T.);
#250=ORIENTED_EDGE('',*,*,#202,.T.);
#251=ORIENTED_EDGE('',*,*,#203,.T.);
#252=ORIENTED_EDGE('',*,*,#204,.F.);
#253=ORIENTED_EDGE('',*,*,#205,.T.);
#254=ORIENTED_EDGE('',*,*,#200,.T.);
#255=ORIENTED_EDGE('',*,*,#206,.T.);
#256=ORIENTED_EDGE('',*,*,#207,.F.);
#257=ORIENTED_EDGE('',*,*,#208,.T.);
#258=ORIENTED_EDGE('',*,*,#204,.T.);
#259=ORIENTED_EDGE('',*,*,#209,.T.);
#260=ORIENTED_EDGE('',*,*,#202,.F.);
#261=ORIENTED_EDGE('',*,*,#210,.T.);
#262=ORIENTED_EDGE('',*,*,#207,.T.);
#263=ORIENTED_EDGE('',*,*,#211,.F.);
#264=ORIENTED_EDGE('',*,*,#212,.T.);
#265=ORIENTED_EDGE('',*,*,#213,.T.);
#266=ORIENTED_EDGE('',*,*,#212,.F.);
#267=ORIENTED_EDGE('',*,*,#214,.F.);
#268=ORIENTED_EDGE('',*,*,#215,.T.);
#269=ORIENTED_EDGE('',*,*,#216,.T.);
#270=ORIENTED_EDGE('',*,*,#215,.F.);
#271=ORIENTED_EDGE('',*,*,#217,.F.);
#272=ORIENTED_EDGE('',*,*,#218,.T.);
#273=ORIENTED_EDGE('',*,*,#219,.T.);
#274=ORIENTED_EDGE('',*,*,#218,.F.);
#275=ORIENTED_EDGE('',*,*,#220,.F.);
#276=ORIENTED_EDGE('',*,*,#221,.T.);
#277=ORIENTED_EDGE('',*,*,#222,.T.);
#278=ORIENTED_EDGE('',*,*,#221,.F.);
#279=ORIENTED_EDGE('',*,*,#223,.F.);
#280=ORIENTED_EDGE('',*,*,#224,.T.);
#281=ORIENTED_EDGE('',*,*,#225,.F.);
#282=ORIENTED_EDGE('',*,*,#226,.F.);
#283=ORIENTED_EDGE('',*,*,#227,.F.);
#284=ORIENTED_EDGE('',*,*,#226,.T.);
#285=ORIENTED_EDGE('',*,*,#228,.F.);
#286=ORIENTED_EDGE('',*,*,#229,.F.);
#287=ORIENTED_EDGE('',*,*,#230,.F.);
#288=ORIENTED_EDGE('',*,*,#229,.T.);
#289=ORIENTED_EDGE('',*,*,#231,.F.);
#290=ORIENTED_EDGE('',*,*,#232,.F.);
#291=ORIENTED_EDGE('',*,*,#233,.F.);
#292=ORIENTED_EDGE('',*,*,#232,.T.);
#293=ORIENTED_EDGE('',*,*,#234,.F.);
#294=ORIENTED_EDGE('',*,*,#224,.F.);
#295=ORIENTED_EDGE('',*,*,#233,.T.);
#296=ORIENTED_EDGE('',*,*,#223,.T.);
#297=ORIENTED_EDGE('',*,*,#227,.T.);
#298=ORIENTED_EDGE('',*,*,#230,.T.);
#299=ORIENTED_EDGE('',*,*,#213,.F.);
#300=ORIENTED_EDGE('',*,*,#216,.F.);
#301=ORIENTED_EDGE('',*,*,#219,.F.);
#302=ORIENTED_EDGE('',*,*,#222,.F.);
#303=ORIENTED_EDGE('',*,*,#201,.F.);
#304=ORIENTED_EDGE('',*,*,#205,.F.);
#305=ORIENTED_EDGE('',*,*,#208,.F.);
#306=ORIENTED_EDGE('',*,*,#210,.F.);
#307=ORIENTED_EDGE('',*,*,#199,.F.);
#308=ORIENTED_EDGE('',*,*,#209,.F.);
#309=ORIENTED_EDGE('',*,*,#206,.F.);
#310=ORIENTED_EDGE('',*,*,#203,.F.);
#311=ORIENTED_EDGE('',*,*,#235,.F.);
#312=ORIENTED_EDGE('',*,*,#236,.F.);
#313=ORIENTED_EDGE('',*,*,#237,.F.);
#314=ORIENTED_EDGE('',*,*,#238,.F.);
#315=ORIENTED_EDGE('',*,*,#236,.T.);
#316=ORIENTED_EDGE('',*,*,#239,.T.);
#317=ORIENTED_EDGE('',*,*,#240,.F.);
#318=ORIENTED_EDGE('',*,*,#241,.F.);
#319=ORIENTED_EDGE('',*,*,#235,.T.);
#320=ORIENTED_EDGE('',*,*,#242,.T.);
#321=ORIENTED_EDGE('',*,*,#243,.F.);
#322=ORIENTED_EDGE('',*,*,#239,.F.);
#323=ORIENTED_EDGE('',*,*,#237,.T.);
#324=ORIENTED_EDGE('',*,*,#241,.T.);
#325=ORIENTED_EDGE('',*,*,#244,.F.);
#326=ORIENTED_EDGE('',*,*,#245,.F.);
#327=ORIENTED_EDGE('',*,*,#238,.T.);
#328=ORIENTED_EDGE('',*,*,#245,.T.);
#329=ORIENTED_EDGE('',*,*,#246,.F.);
#330=ORIENTED_EDGE('',*,*,#242,.F.);
#331=ORIENTED_EDGE('',*,*,#234,.T.);
#332=ORIENTED_EDGE('',*,*,#231,.T.);
#333=ORIENTED_EDGE('',*,*,#228,.T.);
#334=ORIENTED_EDGE('',*,*,#225,.T.);
#335=ORIENTED_EDGE('',*,*,#211,.T.);
#336=ORIENTED_EDGE('',*,*,#214,.T.);
#337=ORIENTED_EDGE('',*,*,#217,.T.);
#338=ORIENTED_EDGE('',*,*,#220,.T.);
#339=ORIENTED_EDGE('',*,*,#243,.T.);
#340=ORIENTED_EDGE('',*,*,#246,.T.);
#341=ORIENTED_EDGE('',*,*,#244,.T.);
#342=ORIENTED_EDGE('',*,*,#240,.T.);
#343=PLANE('',#393);
#344=PLANE('',#394);
#345=PLANE('',#395);
#346=PLANE('',#396);
#347=PLANE('',#409);
#348=PLANE('',#410);
#349=PLANE('',#411);
#350=PLANE('',#412);
#351=PLANE('',#413);
#352=PLANE('',#414);
#353=PLANE('',#415);
#354=PLANE('',#416);
#355=PLANE('',#417);
#356=PLANE('',#418);
#357=PLANE('',#419);
#358=PLANE('',#420);
#359=ADVANCED_FACE('',(#37),#343,.T.);
#360=ADVANCED_FACE('',(#38),#344,.T.);
#361=ADVANCED_FACE('',(#39),#345,.T.);
#362=ADVANCED_FACE('',(#40),#346,.T.);
#363=ADVANCED_FACE('',(#41),#33,.F.);
#364=ADVANCED_FACE('',(#42),#34,.F.);
#365=ADVANCED_FACE('',(#43),#35,.F.);
#366=ADVANCED_FACE('',(#44),#36,.F.);
#367=ADVANCED_FACE('',(#45),#347,.T.);
#368=ADVANCED_FACE('',(#46),#348,.T.);
#369=ADVANCED_FACE('',(#47),#349,.T.);
#370=ADVANCED_FACE('',(#48),#350,.T.);
#371=ADVANCED_FACE('',(#49,#15,#16,#17,#18),#351,.F.);
#372=ADVANCED_FACE('',(#50),#352,.T.);
#373=ADVANCED_FACE('',(#51,#19),#353,.F.);
#374=ADVANCED_FACE('',(#52),#354,.T.);
#375=ADVANCED_FACE('',(#53),#355,.T.);
#376=ADVANCED_FACE('',(#54),#356,.T.);
#377=ADVANCED_FACE('',(#55),#357,.T.);
#378=ADVANCED_FACE('',(#56,#20,#21,#22,#23,#24),#358,.T.);
#379=CLOSED_SHELL('',(#359,#360,#361,#362,#363,#364,#365,#366,#367,#368,
#369,#370,#371,#372,#373,#374,#375,#376,#377,#378));
#380=DERIVED_UNIT_ELEMENT(#382,1.);
#381=DERIVED_UNIT_ELEMENT(#625,-3.);
#382=(
MASS_UNIT()
NAMED_UNIT(*)
SI_UNIT(.KILO.,.GRAM.)
);
#383=DERIVED_UNIT((#380,#381));
#384=MEASURE_REPRESENTATION_ITEM('density measure',
POSITIVE_RATIO_MEASURE(7850.),#383);
#385=PROPERTY_DEFINITION_REPRESENTATION(#390,#387);
#386=PROPERTY_DEFINITION_REPRESENTATION(#391,#388);
#387=REPRESENTATION('material name',(#389),#622);
#388=REPRESENTATION('density',(#384),#622);
#389=DESCRIPTIVE_REPRESENTATION_ITEM('Steel','Steel');
#390=PROPERTY_DEFINITION('material property','material name',#632);
#391=PROPERTY_DEFINITION('material property','density of part',#632);
#392=AXIS2_PLACEMENT_3D('',#519,#421,#422);
#393=AXIS2_PLACEMENT_3D('',#520,#423,#424);
#394=AXIS2_PLACEMENT_3D('',#529,#429,#430);
#395=AXIS2_PLACEMENT_3D('',#535,#434,#435);
#396=AXIS2_PLACEMENT_3D('',#541,#439,#440);
#397=AXIS2_PLACEMENT_3D('',#544,#443,#444);
#398=AXIS2_PLACEMENT_3D('',#546,#445,#446);
#399=AXIS2_PLACEMENT_3D('',#549,#448,#449);
#400=AXIS2_PLACEMENT_3D('',#550,#450,#451);
#401=AXIS2_PLACEMENT_3D('',#552,#452,#453);
#402=AXIS2_PLACEMENT_3D('',#555,#455,#456);
#403=AXIS2_PLACEMENT_3D('',#556,#457,#458);
#404=AXIS2_PLACEMENT_3D('',#558,#459,#460);
#405=AXIS2_PLACEMENT_3D('',#561,#462,#463);
#406=AXIS2_PLACEMENT_3D('',#562,#464,#465);
#407=AXIS2_PLACEMENT_3D('',#564,#466,#467);
#408=AXIS2_PLACEMENT_3D('',#567,#469,#470);
#409=AXIS2_PLACEMENT_3D('',#568,#471,#472);
#410=AXIS2_PLACEMENT_3D('',#577,#477,#478);
#411=AXIS2_PLACEMENT_3D('',#583,#482,#483);
#412=AXIS2_PLACEMENT_3D('',#589,#487,#488);
#413=AXIS2_PLACEMENT_3D('',#592,#491,#492);
#414=AXIS2_PLACEMENT_3D('',#593,#493,#494);
#415=AXIS2_PLACEMENT_3D('',#594,#495,#496);
#416=AXIS2_PLACEMENT_3D('',#603,#501,#502);
#417=AXIS2_PLACEMENT_3D('',#609,#506,#507);
#418=AXIS2_PLACEMENT_3D('',#613,#510,#511);
#419=AXIS2_PLACEMENT_3D('',#617,#514,#515);
#420=AXIS2_PLACEMENT_3D('',#619,#517,#518);
#421=DIRECTION('axis',(0.,0.,1.));
#422=DIRECTION('refdir',(1.,0.,0.));
#423=DIRECTION('center_axis',(0.,0.,-1.));
#424=DIRECTION('ref_axis',(-1.,0.,0.));
#425=DIRECTION('',(1.,0.,0.));
#426=DIRECTION('',(0.,1.,0.));
#427=DIRECTION('',(-1.,0.,0.));
#428=DIRECTION('',(0.,1.,0.));
#429=DIRECTION('center_axis',(-1.,0.,-3.56698160522139E-17));
#430=DIRECTION('ref_axis',(-3.56698160522139E-17,0.,1.));
#431=DIRECTION('',(3.56698160522139E-17,0.,-1.));
#432=DIRECTION('',(0.,1.,0.));
#433=DIRECTION('',(-3.56698160522139E-17,0.,1.));
#434=DIRECTION('center_axis',(0.,0.,1.));
#435=DIRECTION('ref_axis',(1.,0.,0.));
#436=DIRECTION('',(-1.,0.,0.));
#437=DIRECTION('',(0.,1.,0.));
#438=DIRECTION('',(1.,0.,0.));
#439=DIRECTION('center_axis',(1.,0.,0.));
#440=DIRECTION('ref_axis',(0.,0.,-1.));
#441=DIRECTION('',(0.,0.,1.));
#442=DIRECTION('',(0.,0.,-1.));
#443=DIRECTION('center_axis',(0.,1.,0.));
#444=DIRECTION('ref_axis',(1.,0.,0.));
#445=DIRECTION('center_axis',(0.,-1.,0.));
#446=DIRECTION('ref_axis',(1.,0.,0.));
#447=DIRECTION('',(0.,-1.,0.));
#448=DIRECTION('center_axis',(0.,-1.,0.));
#449=DIRECTION('ref_axis',(1.,0.,0.));
#450=DIRECTION('center_axis',(0.,1.,0.));
#451=DIRECTION('ref_axis',(1.,0.,0.));
#452=DIRECTION('center_axis',(0.,-1.,0.));
#453=DIRECTION('ref_axis',(1.,0.,0.));
#454=DIRECTION('',(0.,-1.,0.));
#455=DIRECTION('center_axis',(0.,-1.,0.));
#456=DIRECTION('ref_axis',(1.,0.,0.));
#457=DIRECTION('center_axis',(0.,1.,0.));
#458=DIRECTION('ref_axis',(1.,0.,0.));
#459=DIRECTION('center_axis',(0.,-1.,0.));
#460=DIRECTION('ref_axis',(1.,0.,0.));
#461=DIRECTION('',(0.,-1.,0.));
#462=DIRECTION('center_axis',(0.,-1.,0.));
#463=DIRECTION('ref_axis',(1.,0.,0.));
#464=DIRECTION('center_axis',(0.,1.,0.));
#465=DIRECTION('ref_axis',(1.,0.,0.));
#466=DIRECTION('center_axis',(0.,-1.,0.));
#467=DIRECTION('ref_axis',(1.,0.,0.));
#468=DIRECTION('',(0.,-1.,0.));
#469=DIRECTION('center_axis',(0.,-1.,0.));
#470=DIRECTION('ref_axis',(1.,0.,0.));
#471=DIRECTION('center_axis',(-1.,0.,0.));
#472=DIRECTION('ref_axis',(0.,0.,1.));
#473=DIRECTION('',(0.,0.,-1.));
#474=DIRECTION('',(0.,1.,0.));
#475=DIRECTION('',(0.,0.,1.));
#476=DIRECTION('',(0.,1.,0.));
#477=DIRECTION('center_axis',(0.,0.,-1.));
#478=DIRECTION('ref_axis',(-1.,0.,0.));
#479=DIRECTION('',(1.,0.,0.));
#480=DIRECTION('',(-1.,0.,0.));
#481=DIRECTION('',(0.,1.,0.));
#482=DIRECTION('center_axis',(1.,0.,0.));
#483=DIRECTION('ref_axis',(0.,0.,-1.));
#484=DIRECTION('',(0.,0.,1.));
#485=DIRECTION('',(0.,0.,-1.));
#486=DIRECTION('',(0.,1.,0.));
#487=DIRECTION('center_axis',(0.,0.,1.));
#488=DIRECTION('ref_axis',(1.,0.,0.));
#489=DIRECTION('',(-1.,0.,0.));
#490=DIRECTION('',(1.,0.,0.));
#491=DIRECTION('center_axis',(0.,1.,0.));
#492=DIRECTION('ref_axis',(1.,0.,0.));
#493=DIRECTION('center_axis',(0.,1.,0.));
#494=DIRECTION('ref_axis',(1.,0.,0.));
#495=DIRECTION('center_axis',(0.,1.,0.));
#496=DIRECTION('ref_axis',(0.,0.,1.));
#497=DIRECTION('',(-1.,0.,0.));
#498=DIRECTION('',(0.,0.,1.));
#499=DIRECTION('',(1.,0.,0.));
#500=DIRECTION('',(0.,0.,-1.));
#501=DIRECTION('center_axis',(-1.,0.,0.));
#502=DIRECTION('ref_axis',(0.,0.,1.));
#503=DIRECTION('',(0.,1.,0.));
#504=DIRECTION('',(0.,0.,1.));
#505=DIRECTION('',(0.,1.,0.));
#506=DIRECTION('center_axis',(0.,0.,-1.));
#507=DIRECTION('ref_axis',(-1.,0.,0.));
#508=DIRECTION('',(0.,1.,0.));
#509=DIRECTION('',(-1.,0.,0.));
#510=DIRECTION('center_axis',(0.,0.,1.));
#511=DIRECTION('ref_axis',(1.,0.,0.));
#512=DIRECTION('',(1.,0.,0.));
#513=DIRECTION('',(0.,1.,0.));
#514=DIRECTION('center_axis',(1.,0.,0.));
#515=DIRECTION('ref_axis',(0.,0.,-1.));
#516=DIRECTION('',(0.,0.,-1.));
#517=DIRECTION('center_axis',(0.,1.,0.));
#518=DIRECTION('ref_axis',(0.,0.,1.));
#519=CARTESIAN_POINT('',(0.,0.,0.));
#520=CARTESIAN_POINT('Origin',(18.6744092575746,0.,41.7387925366435));
#521=CARTESIAN_POINT('',(-39.0755907424254,10.,41.7387925366435));
#522=CARTESIAN_POINT('',(18.6744092575746,10.,41.7387925366435));
#523=CARTESIAN_POINT('',(-24.6380907424254,10.,41.7387925366435));
#524=CARTESIAN_POINT('',(18.6744092575746,3.,41.7387925366435));
#525=CARTESIAN_POINT('',(18.6744092575746,0.,41.7387925366435));
#526=CARTESIAN_POINT('',(-39.0755907424254,3.,41.7387925366435));
#527=CARTESIAN_POINT('',(-24.6380907424254,3.,41.7387925366435));
#528=CARTESIAN_POINT('',(-39.0755907424254,0.,41.7387925366435));
#529=CARTESIAN_POINT('Origin',(18.6744092575746,0.,-20.5112074633565));
#530=CARTESIAN_POINT('',(18.6744092575746,10.,-20.5112074633565));
#531=CARTESIAN_POINT('',(18.6744092575746,10.,26.1762925366435));
#532=CARTESIAN_POINT('',(18.6744092575746,3.,-20.5112074633565));
#533=CARTESIAN_POINT('',(18.6744092575746,0.,-20.5112074633565));
#534=CARTESIAN_POINT('',(18.6744092575746,3.,26.1762925366435));
#535=CARTESIAN_POINT('Origin',(-39.0755907424254,0.,-20.5112074633565));
#536=CARTESIAN_POINT('',(-39.0755907424254,10.,-20.5112074633565));
#537=CARTESIAN_POINT('',(4.23690925757463,10.,-20.5112074633565));
#538=CARTESIAN_POINT('',(-39.0755907424254,3.,-20.5112074633565));
#539=CARTESIAN_POINT('',(-39.0755907424254,0.,-20.5112074633565));
#540=CARTESIAN_POINT('',(4.23690925757463,3.,-20.5112074633565));
#541=CARTESIAN_POINT('Origin',(-39.0755907424254,0.,41.7387925366435));
#542=CARTESIAN_POINT('',(-39.0755907424254,10.,-4.94870746335652));
#543=CARTESIAN_POINT('',(-39.0755907424254,3.,-4.94870746335652));
#544=CARTESIAN_POINT('Origin',(23.6744092575746,0.,-25.5112074633565));
#545=CARTESIAN_POINT('',(22.2244092575746,13.,-25.5112074633565));
#546=CARTESIAN_POINT('Origin',(23.6744092575746,13.,-25.5112074633565));
#547=CARTESIAN_POINT('',(22.2244092575746,0.,-25.5112074633565));
#548=CARTESIAN_POINT('',(22.2244092575746,0.,-25.5112074633565));
#549=CARTESIAN_POINT('Origin',(23.6744092575746,0.,-25.5112074633565));
#550=CARTESIAN_POINT('Origin',(23.6744092575746,0.,46.7387925366435));
#551=CARTESIAN_POINT('',(22.2244092575746,13.,46.7387925366435));
#552=CARTESIAN_POINT('Origin',(23.6744092575746,13.,46.7387925366435));
#553=CARTESIAN_POINT('',(22.2244092575746,0.,46.7387925366435));
#554=CARTESIAN_POINT('',(22.2244092575746,0.,46.7387925366435));
#555=CARTESIAN_POINT('Origin',(23.6744092575746,0.,46.7387925366435));
#556=CARTESIAN_POINT('Origin',(-44.0755907424254,0.,-25.5112074633565));
#557=CARTESIAN_POINT('',(-45.5255907424254,13.,-25.5112074633565));
#558=CARTESIAN_POINT('Origin',(-44.0755907424254,13.,-25.5112074633565));
#559=CARTESIAN_POINT('',(-45.5255907424254,0.,-25.5112074633565));
#560=CARTESIAN_POINT('',(-45.5255907424254,0.,-25.5112074633565));
#561=CARTESIAN_POINT('Origin',(-44.0755907424254,0.,-25.5112074633565));
#562=CARTESIAN_POINT('Origin',(-44.0755907424254,0.,46.7387925366435));
#563=CARTESIAN_POINT('',(-45.5255907424254,13.,46.7387925366435));
#564=CARTESIAN_POINT('Origin',(-44.0755907424254,13.,46.7387925366435));
#565=CARTESIAN_POINT('',(-45.5255907424254,0.,46.7387925366435));
#566=CARTESIAN_POINT('',(-45.5255907424254,0.,46.7387925366435));
#567=CARTESIAN_POINT('Origin',(-44.0755907424254,0.,46.7387925366435));
#568=CARTESIAN_POINT('Origin',(-49.0755907424254,0.,-30.5112074633565));
#569=CARTESIAN_POINT('',(-49.0755907424254,0.,51.7387925366435));
#570=CARTESIAN_POINT('',(-49.0755907424254,0.,-30.5112074633565));
#571=CARTESIAN_POINT('',(-49.0755907424254,0.,51.7387925366435));
#572=CARTESIAN_POINT('',(-49.0755907424254,13.,51.7387925366435));
#573=CARTESIAN_POINT('',(-49.0755907424254,0.,51.7387925366435));
#574=CARTESIAN_POINT('',(-49.0755907424254,13.,-30.5112074633565));
#575=CARTESIAN_POINT('',(-49.0755907424254,13.,51.7387925366435));
#576=CARTESIAN_POINT('',(-49.0755907424254,0.,-30.5112074633565));
#577=CARTESIAN_POINT('Origin',(28.6744092575746,0.,-30.5112074633565));
#578=CARTESIAN_POINT('',(28.6744092575746,0.,-30.5112074633565));
#579=CARTESIAN_POINT('',(-49.0755907424254,0.,-30.5112074633565));
#580=CARTESIAN_POINT('',(28.6744092575746,13.,-30.5112074633565));
#581=CARTESIAN_POINT('',(-49.0755907424254,13.,-30.5112074633565));
#582=CARTESIAN_POINT('',(28.6744092575746,0.,-30.5112074633565));
#583=CARTESIAN_POINT('Origin',(28.6744092575746,0.,51.7387925366435));
#584=CARTESIAN_POINT('',(28.6744092575746,0.,51.7387925366435));
#585=CARTESIAN_POINT('',(28.6744092575746,0.,-30.5112074633565));
#586=CARTESIAN_POINT('',(28.6744092575746,13.,51.7387925366435));
#587=CARTESIAN_POINT('',(28.6744092575746,13.,-30.5112074633565));
#588=CARTESIAN_POINT('',(28.6744092575746,0.,51.7387925366435));
#589=CARTESIAN_POINT('Origin',(-49.0755907424254,0.,51.7387925366435));
#590=CARTESIAN_POINT('',(28.6744092575746,0.,51.7387925366435));
#591=CARTESIAN_POINT('',(28.6744092575746,13.,51.7387925366435));
#592=CARTESIAN_POINT('Origin',(-10.2005907424254,0.,10.6137925366435));
#593=CARTESIAN_POINT('Origin',(-10.2005907424254,3.,10.6137925366435));
#594=CARTESIAN_POINT('Origin',(-10.2005907424254,10.,10.6137925366435));
#595=CARTESIAN_POINT('',(15.6744092575746,10.,38.7387925366435));
#596=CARTESIAN_POINT('',(-36.0755907424254,10.,38.7387925366435));
#597=CARTESIAN_POINT('',(2.73690925757463,10.,38.7387925366435));
#598=CARTESIAN_POINT('',(15.6744092575746,10.,-17.5112074633565));
#599=CARTESIAN_POINT('',(15.6744092575746,10.,-3.44870746335651));
#600=CARTESIAN_POINT('',(-36.0755907424254,10.,-17.5112074633565));
#601=CARTESIAN_POINT('',(-23.1380907424254,10.,-17.5112074633565));
#602=CARTESIAN_POINT('',(-36.0755907424254,10.,24.6762925366435));
#603=CARTESIAN_POINT('Origin',(15.6744092575746,0.,-17.5112074633565));
#604=CARTESIAN_POINT('',(15.6744092575746,13.,38.7387925366435));
#605=CARTESIAN_POINT('',(15.6744092575746,0.,38.7387925366435));
#606=CARTESIAN_POINT('',(15.6744092575746,13.,-17.5112074633565));
#607=CARTESIAN_POINT('',(15.6744092575746,13.,-17.5112074633565));
#608=CARTESIAN_POINT('',(15.6744092575746,0.,-17.5112074633565));
#609=CARTESIAN_POINT('Origin',(15.6744092575746,0.,38.7387925366435));
#610=CARTESIAN_POINT('',(-36.0755907424254,13.,38.7387925366435));
#611=CARTESIAN_POINT('',(-36.0755907424254,0.,38.7387925366435));
#612=CARTESIAN_POINT('',(15.6744092575746,13.,38.7387925366435));
#613=CARTESIAN_POINT('Origin',(-36.0755907424254,0.,-17.5112074633565));
#614=CARTESIAN_POINT('',(-36.0755907424254,13.,-17.5112074633565));
#615=CARTESIAN_POINT('',(-36.0755907424254,13.,-17.5112074633565));
#616=CARTESIAN_POINT('',(-36.0755907424254,0.,-17.5112074633565));
#617=CARTESIAN_POINT('Origin',(-36.0755907424254,0.,38.7387925366435));
#618=CARTESIAN_POINT('',(-36.0755907424254,13.,38.7387925366435));
#619=CARTESIAN_POINT('Origin',(-10.2005907424254,13.,10.6137925366435));
#620=UNCERTAINTY_MEASURE_WITH_UNIT(LENGTH_MEASURE(0.01),#624,
'DISTANCE_ACCURACY_VALUE',
'Maximum model space distance between geometric entities at asserted c
onnectivities');
#621=UNCERTAINTY_MEASURE_WITH_UNIT(LENGTH_MEASURE(0.01),#624,
'DISTANCE_ACCURACY_VALUE',
'Maximum model space distance between geometric entities at asserted c
onnectivities');
#622=(
GEOMETRIC_REPRESENTATION_CONTEXT(3)
GLOBAL_UNCERTAINTY_ASSIGNED_CONTEXT((#620))
GLOBAL_UNIT_ASSIGNED_CONTEXT((#624,#626,#627))
REPRESENTATION_CONTEXT('','3D')
);
#623=(
GEOMETRIC_REPRESENTATION_CONTEXT(3)
GLOBAL_UNCERTAINTY_ASSIGNED_CONTEXT((#621))
GLOBAL_UNIT_ASSIGNED_CONTEXT((#624,#626,#627))
REPRESENTATION_CONTEXT('','3D')
);
#624=(
LENGTH_UNIT()
NAMED_UNIT(*)
SI_UNIT(.MILLI.,.METRE.)
);
#625=(
LENGTH_UNIT()
NAMED_UNIT(*)
SI_UNIT($,.METRE.)
);
#626=(
NAMED_UNIT(*)
PLANE_ANGLE_UNIT()
SI_UNIT($,.RADIAN.)
);
#627=(
NAMED_UNIT(*)
SI_UNIT($,.STERADIAN.)
SOLID_ANGLE_UNIT()
);
#628=SHAPE_DEFINITION_REPRESENTATION(#629,#630);
#629=PRODUCT_DEFINITION_SHAPE('',$,#632);
#630=SHAPE_REPRESENTATION('',(#392),#622);
#631=PRODUCT_DEFINITION_CONTEXT('part definition',#636,'design');
#632=PRODUCT_DEFINITION('2026-05-18-20-34-42-507','SabhyaPad Case',#633,
#631);
#633=PRODUCT_DEFINITION_FORMATION('',$,#638);
#634=PRODUCT_RELATED_PRODUCT_CATEGORY('SabhyaPad Case','SabhyaPad Case',
(#638));
#635=APPLICATION_PROTOCOL_DEFINITION('international standard',
'automotive_design',2009,#636);
#636=APPLICATION_CONTEXT(
'Core Data for Automotive Mechanical Design Process');
#637=PRODUCT_CONTEXT('part definition',#636,'mechanical');
#638=PRODUCT('2026-05-18-20-34-42-507','SabhyaPad Case',$,(#637));
#639=PRESENTATION_STYLE_ASSIGNMENT((#640));
#640=SURFACE_STYLE_USAGE(.BOTH.,#641);
#641=SURFACE_SIDE_STYLE('',(#642));
#642=SURFACE_STYLE_FILL_AREA(#643);
#643=FILL_AREA_STYLE('Steel - Satin',(#644));
#644=FILL_AREA_STYLE_COLOUR('Steel - Satin',#645);
#645=COLOUR_RGB('Steel - Satin',0.627450980392157,0.627450980392157,0.627450980392157);
ENDSEC;
END-ISO-10303-21;
