ISO-10303-21;
HEADER;
/* Generated by software containing ST-Developer
 * from STEP Tools, Inc. (www.steptools.com) 
 */

FILE_DESCRIPTION(
/* description */ (''),
/* implementation_level */ '2;1');

FILE_NAME(
/* name */ 'SabhyaPad Case Assembled.step',
/* time_stamp */ '2026-06-07T14:07:11+05:30',
/* author */ (''),
/* organization */ (''),
/* preprocessor_version */ 'ST-DEVELOPER v20.1',
/* originating_system */ 'Autodesk Translation Framework v15.8.0.0',
/* authorisation */ '');

FILE_SCHEMA (('AUTOMOTIVE_DESIGN { 1 0 10303 214 3 1 1 }'));
ENDSEC;

DATA;
#10=MECHANICAL_DESIGN_GEOMETRIC_PRESENTATION_REPRESENTATION('',(#13),#867);
#11=SHAPE_REPRESENTATION_RELATIONSHIP('SRR','None',#874,#12);
#12=ADVANCED_BREP_SHAPE_REPRESENTATION('',(#14),#866);
#13=STYLED_ITEM('',(#883),#14);
#14=MANIFOLD_SOLID_BREP('Body14',#535);
#15=CYLINDRICAL_SURFACE('',#568,1.45);
#16=CYLINDRICAL_SURFACE('',#570,1.45);
#17=CYLINDRICAL_SURFACE('',#572,1.45);
#18=CYLINDRICAL_SURFACE('',#574,1.45);
#19=FACE_BOUND('',#73,.T.);
#20=FACE_BOUND('',#74,.T.);
#21=FACE_BOUND('',#75,.T.);
#22=FACE_BOUND('',#76,.T.);
#23=FACE_BOUND('',#88,.T.);
#24=FACE_BOUND('',#89,.T.);
#25=FACE_BOUND('',#90,.T.);
#26=FACE_BOUND('',#91,.T.);
#27=CIRCLE('',#561,1.45);
#28=CIRCLE('',#562,1.45);
#29=CIRCLE('',#563,1.45);
#30=CIRCLE('',#564,1.45);
#31=CIRCLE('',#569,1.45);
#32=CIRCLE('',#571,1.45);
#33=CIRCLE('',#573,1.45);
#34=CIRCLE('',#575,1.45);
#35=FACE_OUTER_BOUND('',#61,.T.);
#36=FACE_OUTER_BOUND('',#62,.T.);
#37=FACE_OUTER_BOUND('',#63,.T.);
#38=FACE_OUTER_BOUND('',#64,.T.);
#39=FACE_OUTER_BOUND('',#65,.T.);
#40=FACE_OUTER_BOUND('',#66,.T.);
#41=FACE_OUTER_BOUND('',#67,.T.);
#42=FACE_OUTER_BOUND('',#68,.T.);
#43=FACE_OUTER_BOUND('',#69,.T.);
#44=FACE_OUTER_BOUND('',#70,.T.);
#45=FACE_OUTER_BOUND('',#71,.T.);
#46=FACE_OUTER_BOUND('',#72,.T.);
#47=FACE_OUTER_BOUND('',#77,.T.);
#48=FACE_OUTER_BOUND('',#78,.T.);
#49=FACE_OUTER_BOUND('',#79,.T.);
#50=FACE_OUTER_BOUND('',#80,.T.);
#51=FACE_OUTER_BOUND('',#81,.T.);
#52=FACE_OUTER_BOUND('',#82,.T.);
#53=FACE_OUTER_BOUND('',#83,.T.);
#54=FACE_OUTER_BOUND('',#84,.T.);
#55=FACE_OUTER_BOUND('',#85,.T.);
#56=FACE_OUTER_BOUND('',#86,.T.);
#57=FACE_OUTER_BOUND('',#87,.T.);
#58=FACE_OUTER_BOUND('',#92,.T.);
#59=FACE_OUTER_BOUND('',#93,.T.);
#60=FACE_OUTER_BOUND('',#94,.T.);
#61=EDGE_LOOP('',(#343,#344,#345,#346,#347,#348));
#62=EDGE_LOOP('',(#349,#350,#351,#352,#353,#354,#355,#356,#357,#358,#359,
#360));
#63=EDGE_LOOP('',(#361,#362,#363,#364,#365,#366,#367,#368,#369,#370,#371,
#372));
#64=EDGE_LOOP('',(#373,#374,#375,#376));
#65=EDGE_LOOP('',(#377,#378,#379,#380));
#66=EDGE_LOOP('',(#381,#382,#383,#384));
#67=EDGE_LOOP('',(#385,#386,#387,#388));
#68=EDGE_LOOP('',(#389,#390,#391,#392,#393,#394));
#69=EDGE_LOOP('',(#395,#396,#397,#398));
#70=EDGE_LOOP('',(#399,#400,#401,#402));
#71=EDGE_LOOP('',(#403,#404,#405,#406,#407,#408,#409,#410,#411,#412));
#72=EDGE_LOOP('',(#413,#414,#415,#416,#417,#418,#419,#420,#421,#422));
#73=EDGE_LOOP('',(#423));
#74=EDGE_LOOP('',(#424));
#75=EDGE_LOOP('',(#425));
#76=EDGE_LOOP('',(#426));
#77=EDGE_LOOP('',(#427,#428,#429,#430));
#78=EDGE_LOOP('',(#431,#432,#433,#434));
#79=EDGE_LOOP('',(#435,#436,#437,#438));
#80=EDGE_LOOP('',(#439,#440,#441,#442));
#81=EDGE_LOOP('',(#443,#444,#445,#446));
#82=EDGE_LOOP('',(#447,#448,#449,#450));
#83=EDGE_LOOP('',(#451,#452,#453,#454));
#84=EDGE_LOOP('',(#455,#456,#457,#458));
#85=EDGE_LOOP('',(#459,#460,#461,#462));
#86=EDGE_LOOP('',(#463,#464,#465,#466));
#87=EDGE_LOOP('',(#467,#468,#469,#470));
#88=EDGE_LOOP('',(#471));
#89=EDGE_LOOP('',(#472));
#90=EDGE_LOOP('',(#473));
#91=EDGE_LOOP('',(#474));
#92=EDGE_LOOP('',(#475,#476,#477,#478));
#93=EDGE_LOOP('',(#479,#480,#481,#482));
#94=EDGE_LOOP('',(#483,#484,#485,#486));
#95=LINE('',#721,#159);
#96=LINE('',#723,#160);
#97=LINE('',#725,#161);
#98=LINE('',#727,#162);
#99=LINE('',#729,#163);
#100=LINE('',#730,#164);
#101=LINE('',#733,#165);
#102=LINE('',#735,#166);
#103=LINE('',#737,#167);
#104=LINE('',#739,#168);
#105=LINE('',#741,#169);
#106=LINE('',#743,#170);
#107=LINE('',#745,#171);
#108=LINE('',#747,#172);
#109=LINE('',#749,#173);
#110=LINE('',#751,#174);
#111=LINE('',#752,#175);
#112=LINE('',#755,#176);
#113=LINE('',#757,#177);
#114=LINE('',#759,#178);
#115=LINE('',#761,#179);
#116=LINE('',#763,#180);
#117=LINE('',#765,#181);
#118=LINE('',#767,#182);
#119=LINE('',#769,#183);
#120=LINE('',#771,#184);
#121=LINE('',#773,#185);
#122=LINE('',#774,#186);
#123=LINE('',#776,#187);
#124=LINE('',#777,#188);
#125=LINE('',#779,#189);
#126=LINE('',#781,#190);
#127=LINE('',#782,#191);
#128=LINE('',#786,#192);
#129=LINE('',#788,#193);
#130=LINE('',#789,#194);
#131=LINE('',#793,#195);
#132=LINE('',#795,#196);
#133=LINE('',#796,#197);
#134=LINE('',#799,#198);
#135=LINE('',#801,#199);
#136=LINE('',#802,#200);
#137=LINE('',#804,#201);
#138=LINE('',#805,#202);
#139=LINE('',#808,#203);
#140=LINE('',#809,#204);
#141=LINE('',#811,#205);
#142=LINE('',#813,#206);
#143=LINE('',#814,#207);
#144=LINE('',#825,#208);
#145=LINE('',#827,#209);
#146=LINE('',#828,#210);
#147=LINE('',#830,#211);
#148=LINE('',#832,#212);
#149=LINE('',#835,#213);
#150=LINE('',#839,#214);
#151=LINE('',#843,#215);
#152=LINE('',#847,#216);
#153=LINE('',#851,#217);
#154=LINE('',#852,#218);
#155=LINE('',#855,#219);
#156=LINE('',#856,#220);
#157=LINE('',#858,#221);
#158=LINE('',#862,#222);
#159=VECTOR('',#587,10.);
#160=VECTOR('',#588,10.);
#161=VECTOR('',#589,10.);
#162=VECTOR('',#590,10.);
#163=VECTOR('',#591,10.);
#164=VECTOR('',#592,10.);
#165=VECTOR('',#595,10.);
#166=VECTOR('',#596,10.);
#167=VECTOR('',#597,10.);
#168=VECTOR('',#598,10.);
#169=VECTOR('',#599,10.);
#170=VECTOR('',#600,10.);
#171=VECTOR('',#601,10.);
#172=VECTOR('',#602,10.);
#173=VECTOR('',#603,10.);
#174=VECTOR('',#604,10.);
#175=VECTOR('',#605,10.);
#176=VECTOR('',#608,10.);
#177=VECTOR('',#609,10.);
#178=VECTOR('',#610,10.);
#179=VECTOR('',#611,10.);
#180=VECTOR('',#612,10.);
#181=VECTOR('',#613,10.);
#182=VECTOR('',#614,10.);
#183=VECTOR('',#615,10.);
#184=VECTOR('',#616,10.);
#185=VECTOR('',#617,10.);
#186=VECTOR('',#618,10.);
#187=VECTOR('',#621,10.);
#188=VECTOR('',#622,10.);
#189=VECTOR('',#625,10.);
#190=VECTOR('',#628,10.);
#191=VECTOR('',#629,10.);
#192=VECTOR('',#634,10.);
#193=VECTOR('',#635,10.);
#194=VECTOR('',#636,10.);
#195=VECTOR('',#641,10.);
#196=VECTOR('',#642,10.);
#197=VECTOR('',#643,10.);
#198=VECTOR('',#646,10.);
#199=VECTOR('',#647,10.);
#200=VECTOR('',#648,10.);
#201=VECTOR('',#649,10.);
#202=VECTOR('',#650,10.);
#203=VECTOR('',#653,10.);
#204=VECTOR('',#654,10.);
#205=VECTOR('',#655,10.);
#206=VECTOR('',#656,10.);
#207=VECTOR('',#657,10.);
#208=VECTOR('',#668,10.);
#209=VECTOR('',#669,10.);
#210=VECTOR('',#670,10.);
#211=VECTOR('',#673,10.);
#212=VECTOR('',#676,10.);
#213=VECTOR('',#679,1.45);
#214=VECTOR('',#684,1.45);
#215=VECTOR('',#689,1.45);
#216=VECTOR('',#694,1.45);
#217=VECTOR('',#699,10.);
#218=VECTOR('',#700,10.);
#219=VECTOR('',#703,10.);
#220=VECTOR('',#704,10.);
#221=VECTOR('',#707,10.);
#222=VECTOR('',#714,10.);
#223=VERTEX_POINT('',#719);
#224=VERTEX_POINT('',#720);
#225=VERTEX_POINT('',#722);
#226=VERTEX_POINT('',#724);
#227=VERTEX_POINT('',#726);
#228=VERTEX_POINT('',#728);
#229=VERTEX_POINT('',#732);
#230=VERTEX_POINT('',#734);
#231=VERTEX_POINT('',#736);
#232=VERTEX_POINT('',#738);
#233=VERTEX_POINT('',#740);
#234=VERTEX_POINT('',#742);
#235=VERTEX_POINT('',#744);
#236=VERTEX_POINT('',#746);
#237=VERTEX_POINT('',#748);
#238=VERTEX_POINT('',#750);
#239=VERTEX_POINT('',#754);
#240=VERTEX_POINT('',#756);
#241=VERTEX_POINT('',#758);
#242=VERTEX_POINT('',#760);
#243=VERTEX_POINT('',#762);
#244=VERTEX_POINT('',#764);
#245=VERTEX_POINT('',#766);
#246=VERTEX_POINT('',#768);
#247=VERTEX_POINT('',#770);
#248=VERTEX_POINT('',#772);
#249=VERTEX_POINT('',#785);
#250=VERTEX_POINT('',#787);
#251=VERTEX_POINT('',#792);
#252=VERTEX_POINT('',#794);
#253=VERTEX_POINT('',#798);
#254=VERTEX_POINT('',#800);
#255=VERTEX_POINT('',#803);
#256=VERTEX_POINT('',#807);
#257=VERTEX_POINT('',#810);
#258=VERTEX_POINT('',#812);
#259=VERTEX_POINT('',#815);
#260=VERTEX_POINT('',#817);
#261=VERTEX_POINT('',#819);
#262=VERTEX_POINT('',#821);
#263=VERTEX_POINT('',#824);
#264=VERTEX_POINT('',#826);
#265=VERTEX_POINT('',#834);
#266=VERTEX_POINT('',#838);
#267=VERTEX_POINT('',#842);
#268=VERTEX_POINT('',#846);
#269=VERTEX_POINT('',#850);
#270=VERTEX_POINT('',#854);
#271=EDGE_CURVE('',#223,#224,#95,.T.);
#272=EDGE_CURVE('',#225,#223,#96,.T.);
#273=EDGE_CURVE('',#226,#225,#97,.T.);
#274=EDGE_CURVE('',#227,#226,#98,.T.);
#275=EDGE_CURVE('',#228,#227,#99,.T.);
#276=EDGE_CURVE('',#224,#228,#100,.T.);
#277=EDGE_CURVE('',#229,#223,#101,.T.);
#278=EDGE_CURVE('',#230,#229,#102,.T.);
#279=EDGE_CURVE('',#230,#231,#103,.T.);
#280=EDGE_CURVE('',#231,#232,#104,.T.);
#281=EDGE_CURVE('',#233,#232,#105,.T.);
#282=EDGE_CURVE('',#233,#234,#106,.T.);
#283=EDGE_CURVE('',#234,#235,#107,.T.);
#284=EDGE_CURVE('',#236,#235,#108,.T.);
#285=EDGE_CURVE('',#236,#237,#109,.T.);
#286=EDGE_CURVE('',#237,#238,#110,.T.);
#287=EDGE_CURVE('',#238,#225,#111,.T.);
#288=EDGE_CURVE('',#239,#224,#112,.T.);
#289=EDGE_CURVE('',#240,#228,#113,.T.);
#290=EDGE_CURVE('',#241,#240,#114,.T.);
#291=EDGE_CURVE('',#242,#241,#115,.T.);
#292=EDGE_CURVE('',#242,#243,#116,.T.);
#293=EDGE_CURVE('',#244,#243,#117,.T.);
#294=EDGE_CURVE('',#244,#245,#118,.T.);
#295=EDGE_CURVE('',#246,#245,#119,.T.);
#296=EDGE_CURVE('',#247,#246,#120,.T.);
#297=EDGE_CURVE('',#247,#248,#121,.T.);
#298=EDGE_CURVE('',#248,#239,#122,.T.);
#299=EDGE_CURVE('',#247,#231,#123,.T.);
#300=EDGE_CURVE('',#232,#246,#124,.T.);
#301=EDGE_CURVE('',#233,#245,#125,.T.);
#302=EDGE_CURVE('',#248,#230,#126,.T.);
#303=EDGE_CURVE('',#239,#229,#127,.T.);
#304=EDGE_CURVE('',#249,#244,#128,.T.);
#305=EDGE_CURVE('',#250,#249,#129,.T.);
#306=EDGE_CURVE('',#234,#250,#130,.T.);
#307=EDGE_CURVE('',#251,#249,#131,.T.);
#308=EDGE_CURVE('',#252,#251,#132,.T.);
#309=EDGE_CURVE('',#252,#250,#133,.T.);
#310=EDGE_CURVE('',#253,#238,#134,.T.);
#311=EDGE_CURVE('',#254,#253,#135,.T.);
#312=EDGE_CURVE('',#235,#254,#136,.T.);
#313=EDGE_CURVE('',#255,#252,#137,.T.);
#314=EDGE_CURVE('',#226,#255,#138,.T.);
#315=EDGE_CURVE('',#227,#256,#139,.T.);
#316=EDGE_CURVE('',#256,#251,#140,.T.);
#317=EDGE_CURVE('',#243,#257,#141,.T.);
#318=EDGE_CURVE('',#257,#258,#142,.T.);
#319=EDGE_CURVE('',#258,#240,#143,.T.);
#320=EDGE_CURVE('',#259,#259,#27,.T.);
#321=EDGE_CURVE('',#260,#260,#28,.T.);
#322=EDGE_CURVE('',#261,#261,#29,.T.);
#323=EDGE_CURVE('',#262,#262,#30,.T.);
#324=EDGE_CURVE('',#263,#253,#144,.T.);
#325=EDGE_CURVE('',#263,#264,#145,.T.);
#326=EDGE_CURVE('',#264,#254,#146,.T.);
#327=EDGE_CURVE('',#237,#263,#147,.T.);
#328=EDGE_CURVE('',#264,#236,#148,.T.);
#329=EDGE_CURVE('',#262,#265,#149,.T.);
#330=EDGE_CURVE('',#265,#265,#31,.T.);
#331=EDGE_CURVE('',#261,#266,#150,.T.);
#332=EDGE_CURVE('',#266,#266,#32,.T.);
#333=EDGE_CURVE('',#260,#267,#151,.T.);
#334=EDGE_CURVE('',#267,#267,#33,.T.);
#335=EDGE_CURVE('',#259,#268,#152,.T.);
#336=EDGE_CURVE('',#268,#268,#34,.T.);
#337=EDGE_CURVE('',#269,#242,#153,.T.);
#338=EDGE_CURVE('',#269,#257,#154,.T.);
#339=EDGE_CURVE('',#241,#270,#155,.T.);
#340=EDGE_CURVE('',#270,#258,#156,.T.);
#341=EDGE_CURVE('',#270,#269,#157,.T.);
#342=EDGE_CURVE('',#255,#256,#158,.T.);
#343=ORIENTED_EDGE('',*,*,#271,.F.);
#344=ORIENTED_EDGE('',*,*,#272,.F.);
#345=ORIENTED_EDGE('',*,*,#273,.F.);
#346=ORIENTED_EDGE('',*,*,#274,.F.);
#347=ORIENTED_EDGE('',*,*,#275,.F.);
#348=ORIENTED_EDGE('',*,*,#276,.F.);
#349=ORIENTED_EDGE('',*,*,#272,.T.);
#350=ORIENTED_EDGE('',*,*,#277,.F.);
#351=ORIENTED_EDGE('',*,*,#278,.F.);
#352=ORIENTED_EDGE('',*,*,#279,.T.);
#353=ORIENTED_EDGE('',*,*,#280,.T.);
#354=ORIENTED_EDGE('',*,*,#281,.F.);
#355=ORIENTED_EDGE('',*,*,#282,.T.);
#356=ORIENTED_EDGE('',*,*,#283,.T.);
#357=ORIENTED_EDGE('',*,*,#284,.F.);
#358=ORIENTED_EDGE('',*,*,#285,.T.);
#359=ORIENTED_EDGE('',*,*,#286,.T.);
#360=ORIENTED_EDGE('',*,*,#287,.T.);
#361=ORIENTED_EDGE('',*,*,#288,.T.);
#362=ORIENTED_EDGE('',*,*,#276,.T.);
#363=ORIENTED_EDGE('',*,*,#289,.F.);
#364=ORIENTED_EDGE('',*,*,#290,.F.);
#365=ORIENTED_EDGE('',*,*,#291,.F.);
#366=ORIENTED_EDGE('',*,*,#292,.T.);
#367=ORIENTED_EDGE('',*,*,#293,.F.);
#368=ORIENTED_EDGE('',*,*,#294,.T.);
#369=ORIENTED_EDGE('',*,*,#295,.F.);
#370=ORIENTED_EDGE('',*,*,#296,.F.);
#371=ORIENTED_EDGE('',*,*,#297,.T.);
#372=ORIENTED_EDGE('',*,*,#298,.T.);
#373=ORIENTED_EDGE('',*,*,#299,.F.);
#374=ORIENTED_EDGE('',*,*,#296,.T.);
#375=ORIENTED_EDGE('',*,*,#300,.F.);
#376=ORIENTED_EDGE('',*,*,#280,.F.);
#377=ORIENTED_EDGE('',*,*,#281,.T.);
#378=ORIENTED_EDGE('',*,*,#300,.T.);
#379=ORIENTED_EDGE('',*,*,#295,.T.);
#380=ORIENTED_EDGE('',*,*,#301,.F.);
#381=ORIENTED_EDGE('',*,*,#302,.T.);
#382=ORIENTED_EDGE('',*,*,#278,.T.);
#383=ORIENTED_EDGE('',*,*,#303,.F.);
#384=ORIENTED_EDGE('',*,*,#298,.F.);
#385=ORIENTED_EDGE('',*,*,#277,.T.);
#386=ORIENTED_EDGE('',*,*,#271,.T.);
#387=ORIENTED_EDGE('',*,*,#288,.F.);
#388=ORIENTED_EDGE('',*,*,#303,.T.);
#389=ORIENTED_EDGE('',*,*,#301,.T.);
#390=ORIENTED_EDGE('',*,*,#294,.F.);
#391=ORIENTED_EDGE('',*,*,#304,.F.);
#392=ORIENTED_EDGE('',*,*,#305,.F.);
#393=ORIENTED_EDGE('',*,*,#306,.F.);
#394=ORIENTED_EDGE('',*,*,#282,.F.);
#395=ORIENTED_EDGE('',*,*,#279,.F.);
#396=ORIENTED_EDGE('',*,*,#302,.F.);
#397=ORIENTED_EDGE('',*,*,#297,.F.);
#398=ORIENTED_EDGE('',*,*,#299,.T.);
#399=ORIENTED_EDGE('',*,*,#305,.T.);
#400=ORIENTED_EDGE('',*,*,#307,.F.);
#401=ORIENTED_EDGE('',*,*,#308,.F.);
#402=ORIENTED_EDGE('',*,*,#309,.T.);
#403=ORIENTED_EDGE('',*,*,#273,.T.);
#404=ORIENTED_EDGE('',*,*,#287,.F.);
#405=ORIENTED_EDGE('',*,*,#310,.F.);
#406=ORIENTED_EDGE('',*,*,#311,.F.);
#407=ORIENTED_EDGE('',*,*,#312,.F.);
#408=ORIENTED_EDGE('',*,*,#283,.F.);
#409=ORIENTED_EDGE('',*,*,#306,.T.);
#410=ORIENTED_EDGE('',*,*,#309,.F.);
#411=ORIENTED_EDGE('',*,*,#313,.F.);
#412=ORIENTED_EDGE('',*,*,#314,.F.);
#413=ORIENTED_EDGE('',*,*,#315,.T.);
#414=ORIENTED_EDGE('',*,*,#316,.T.);
#415=ORIENTED_EDGE('',*,*,#307,.T.);
#416=ORIENTED_EDGE('',*,*,#304,.T.);
#417=ORIENTED_EDGE('',*,*,#293,.T.);
#418=ORIENTED_EDGE('',*,*,#317,.T.);
#419=ORIENTED_EDGE('',*,*,#318,.T.);
#420=ORIENTED_EDGE('',*,*,#319,.T.);
#421=ORIENTED_EDGE('',*,*,#289,.T.);
#422=ORIENTED_EDGE('',*,*,#275,.T.);
#423=ORIENTED_EDGE('',*,*,#320,.T.);
#424=ORIENTED_EDGE('',*,*,#321,.T.);
#425=ORIENTED_EDGE('',*,*,#322,.T.);
#426=ORIENTED_EDGE('',*,*,#323,.T.);
#427=ORIENTED_EDGE('',*,*,#311,.T.);
#428=ORIENTED_EDGE('',*,*,#324,.F.);
#429=ORIENTED_EDGE('',*,*,#325,.T.);
#430=ORIENTED_EDGE('',*,*,#326,.T.);
#431=ORIENTED_EDGE('',*,*,#310,.T.);
#432=ORIENTED_EDGE('',*,*,#286,.F.);
#433=ORIENTED_EDGE('',*,*,#327,.T.);
#434=ORIENTED_EDGE('',*,*,#324,.T.);
#435=ORIENTED_EDGE('',*,*,#312,.T.);
#436=ORIENTED_EDGE('',*,*,#326,.F.);
#437=ORIENTED_EDGE('',*,*,#328,.T.);
#438=ORIENTED_EDGE('',*,*,#284,.T.);
#439=ORIENTED_EDGE('',*,*,#323,.F.);
#440=ORIENTED_EDGE('',*,*,#329,.T.);
#441=ORIENTED_EDGE('',*,*,#330,.T.);
#442=ORIENTED_EDGE('',*,*,#329,.F.);
#443=ORIENTED_EDGE('',*,*,#322,.F.);
#444=ORIENTED_EDGE('',*,*,#331,.T.);
#445=ORIENTED_EDGE('',*,*,#332,.T.);
#446=ORIENTED_EDGE('',*,*,#331,.F.);
#447=ORIENTED_EDGE('',*,*,#321,.F.);
#448=ORIENTED_EDGE('',*,*,#333,.T.);
#449=ORIENTED_EDGE('',*,*,#334,.T.);
#450=ORIENTED_EDGE('',*,*,#333,.F.);
#451=ORIENTED_EDGE('',*,*,#320,.F.);
#452=ORIENTED_EDGE('',*,*,#335,.T.);
#453=ORIENTED_EDGE('',*,*,#336,.T.);
#454=ORIENTED_EDGE('',*,*,#335,.F.);
#455=ORIENTED_EDGE('',*,*,#337,.F.);
#456=ORIENTED_EDGE('',*,*,#338,.T.);
#457=ORIENTED_EDGE('',*,*,#317,.F.);
#458=ORIENTED_EDGE('',*,*,#292,.F.);
#459=ORIENTED_EDGE('',*,*,#339,.F.);
#460=ORIENTED_EDGE('',*,*,#290,.T.);
#461=ORIENTED_EDGE('',*,*,#319,.F.);
#462=ORIENTED_EDGE('',*,*,#340,.F.);
#463=ORIENTED_EDGE('',*,*,#341,.F.);
#464=ORIENTED_EDGE('',*,*,#340,.T.);
#465=ORIENTED_EDGE('',*,*,#318,.F.);
#466=ORIENTED_EDGE('',*,*,#338,.F.);
#467=ORIENTED_EDGE('',*,*,#341,.T.);
#468=ORIENTED_EDGE('',*,*,#337,.T.);
#469=ORIENTED_EDGE('',*,*,#291,.T.);
#470=ORIENTED_EDGE('',*,*,#339,.T.);
#471=ORIENTED_EDGE('',*,*,#330,.F.);
#472=ORIENTED_EDGE('',*,*,#332,.F.);
#473=ORIENTED_EDGE('',*,*,#334,.F.);
#474=ORIENTED_EDGE('',*,*,#336,.F.);
#475=ORIENTED_EDGE('',*,*,#325,.F.);
#476=ORIENTED_EDGE('',*,*,#327,.F.);
#477=ORIENTED_EDGE('',*,*,#285,.F.);
#478=ORIENTED_EDGE('',*,*,#328,.F.);
#479=ORIENTED_EDGE('',*,*,#314,.T.);
#480=ORIENTED_EDGE('',*,*,#342,.T.);
#481=ORIENTED_EDGE('',*,*,#315,.F.);
#482=ORIENTED_EDGE('',*,*,#274,.T.);
#483=ORIENTED_EDGE('',*,*,#313,.T.);
#484=ORIENTED_EDGE('',*,*,#308,.T.);
#485=ORIENTED_EDGE('',*,*,#316,.F.);
#486=ORIENTED_EDGE('',*,*,#342,.F.);
#487=PLANE('',#549);
#488=PLANE('',#550);
#489=PLANE('',#551);
#490=PLANE('',#552);
#491=PLANE('',#553);
#492=PLANE('',#554);
#493=PLANE('',#555);
#494=PLANE('',#556);
#495=PLANE('',#557);
#496=PLANE('',#558);
#497=PLANE('',#559);
#498=PLANE('',#560);
#499=PLANE('',#565);
#500=PLANE('',#566);
#501=PLANE('',#567);
#502=PLANE('',#576);
#503=PLANE('',#577);
#504=PLANE('',#578);
#505=PLANE('',#579);
#506=PLANE('',#580);
#507=PLANE('',#581);
#508=PLANE('',#582);
#509=ADVANCED_FACE('',(#35),#487,.F.);
#510=ADVANCED_FACE('',(#36),#488,.T.);
#511=ADVANCED_FACE('',(#37),#489,.T.);
#512=ADVANCED_FACE('',(#38),#490,.T.);
#513=ADVANCED_FACE('',(#39),#491,.T.);
#514=ADVANCED_FACE('',(#40),#492,.T.);
#515=ADVANCED_FACE('',(#41),#493,.T.);
#516=ADVANCED_FACE('',(#42),#494,.F.);
#517=ADVANCED_FACE('',(#43),#495,.F.);
#518=ADVANCED_FACE('',(#44),#496,.T.);
#519=ADVANCED_FACE('',(#45),#497,.F.);
#520=ADVANCED_FACE('',(#46,#19,#20,#21,#22),#498,.T.);
#521=ADVANCED_FACE('',(#47),#499,.T.);
#522=ADVANCED_FACE('',(#48),#500,.T.);
#523=ADVANCED_FACE('',(#49),#501,.T.);
#524=ADVANCED_FACE('',(#50),#15,.F.);
#525=ADVANCED_FACE('',(#51),#16,.F.);
#526=ADVANCED_FACE('',(#52),#17,.F.);
#527=ADVANCED_FACE('',(#53),#18,.F.);
#528=ADVANCED_FACE('',(#54),#502,.T.);
#529=ADVANCED_FACE('',(#55),#503,.T.);
#530=ADVANCED_FACE('',(#56),#504,.T.);
#531=ADVANCED_FACE('',(#57,#23,#24,#25,#26),#505,.F.);
#532=ADVANCED_FACE('',(#58),#506,.T.);
#533=ADVANCED_FACE('',(#59),#507,.T.);
#534=ADVANCED_FACE('',(#60),#508,.T.);
#535=CLOSED_SHELL('',(#509,#510,#511,#512,#513,#514,#515,#516,#517,#518,
#519,#520,#521,#522,#523,#524,#525,#526,#527,#528,#529,#530,#531,#532,#533,
#534));
#536=DERIVED_UNIT_ELEMENT(#538,1.);
#537=DERIVED_UNIT_ELEMENT(#869,-3.);
#538=(
MASS_UNIT()
NAMED_UNIT(*)
SI_UNIT(.KILO.,.GRAM.)
);
#539=DERIVED_UNIT((#536,#537));
#540=MEASURE_REPRESENTATION_ITEM('density measure',
POSITIVE_RATIO_MEASURE(7850.),#539);
#541=PROPERTY_DEFINITION_REPRESENTATION(#546,#543);
#542=PROPERTY_DEFINITION_REPRESENTATION(#547,#544);
#543=REPRESENTATION('material name',(#545),#866);
#544=REPRESENTATION('density',(#540),#866);
#545=DESCRIPTIVE_REPRESENTATION_ITEM('Steel','Steel');
#546=PROPERTY_DEFINITION('material property','material name',#876);
#547=PROPERTY_DEFINITION('material property','density of part',#876);
#548=AXIS2_PLACEMENT_3D('',#717,#583,#584);
#549=AXIS2_PLACEMENT_3D('',#718,#585,#586);
#550=AXIS2_PLACEMENT_3D('',#731,#593,#594);
#551=AXIS2_PLACEMENT_3D('',#753,#606,#607);
#552=AXIS2_PLACEMENT_3D('',#775,#619,#620);
#553=AXIS2_PLACEMENT_3D('',#778,#623,#624);
#554=AXIS2_PLACEMENT_3D('',#780,#626,#627);
#555=AXIS2_PLACEMENT_3D('',#783,#630,#631);
#556=AXIS2_PLACEMENT_3D('',#784,#632,#633);
#557=AXIS2_PLACEMENT_3D('',#790,#637,#638);
#558=AXIS2_PLACEMENT_3D('',#791,#639,#640);
#559=AXIS2_PLACEMENT_3D('',#797,#644,#645);
#560=AXIS2_PLACEMENT_3D('',#806,#651,#652);
#561=AXIS2_PLACEMENT_3D('',#816,#658,#659);
#562=AXIS2_PLACEMENT_3D('',#818,#660,#661);
#563=AXIS2_PLACEMENT_3D('',#820,#662,#663);
#564=AXIS2_PLACEMENT_3D('',#822,#664,#665);
#565=AXIS2_PLACEMENT_3D('',#823,#666,#667);
#566=AXIS2_PLACEMENT_3D('',#829,#671,#672);
#567=AXIS2_PLACEMENT_3D('',#831,#674,#675);
#568=AXIS2_PLACEMENT_3D('',#833,#677,#678);
#569=AXIS2_PLACEMENT_3D('',#836,#680,#681);
#570=AXIS2_PLACEMENT_3D('',#837,#682,#683);
#571=AXIS2_PLACEMENT_3D('',#840,#685,#686);
#572=AXIS2_PLACEMENT_3D('',#841,#687,#688);
#573=AXIS2_PLACEMENT_3D('',#844,#690,#691);
#574=AXIS2_PLACEMENT_3D('',#845,#692,#693);
#575=AXIS2_PLACEMENT_3D('',#848,#695,#696);
#576=AXIS2_PLACEMENT_3D('',#849,#697,#698);
#577=AXIS2_PLACEMENT_3D('',#853,#701,#702);
#578=AXIS2_PLACEMENT_3D('',#857,#705,#706);
#579=AXIS2_PLACEMENT_3D('',#859,#708,#709);
#580=AXIS2_PLACEMENT_3D('',#860,#710,#711);
#581=AXIS2_PLACEMENT_3D('',#861,#712,#713);
#582=AXIS2_PLACEMENT_3D('',#863,#715,#716);
#583=DIRECTION('axis',(0.,0.,1.));
#584=DIRECTION('refdir',(1.,0.,0.));
#585=DIRECTION('center_axis',(1.,0.,0.));
#586=DIRECTION('ref_axis',(0.,0.,-1.));
#587=DIRECTION('',(0.,0.,-1.));
#588=DIRECTION('',(0.,-1.,0.));
#589=DIRECTION('',(0.,0.,-1.));
#590=DIRECTION('',(0.,-1.,0.));
#591=DIRECTION('',(0.,0.,1.));
#592=DIRECTION('',(0.,1.,0.));
#593=DIRECTION('center_axis',(0.,0.,1.));
#594=DIRECTION('ref_axis',(1.,0.,0.));
#595=DIRECTION('',(1.,0.,0.));
#596=DIRECTION('',(0.,1.,0.));
#597=DIRECTION('',(-1.,0.,0.));
#598=DIRECTION('',(0.,1.,0.));
#599=DIRECTION('',(1.,0.,0.));
#600=DIRECTION('',(0.,1.,0.));
#601=DIRECTION('',(-1.,0.,0.));
#602=DIRECTION('',(0.,1.,0.));
#603=DIRECTION('',(1.,0.,0.));
#604=DIRECTION('',(0.,1.,0.));
#605=DIRECTION('',(-1.,0.,0.));
#606=DIRECTION('center_axis',(0.,0.,-1.));
#607=DIRECTION('ref_axis',(-1.,0.,0.));
#608=DIRECTION('',(1.,0.,0.));
#609=DIRECTION('',(-1.,0.,0.));
#610=DIRECTION('',(0.,1.,0.));
#611=DIRECTION('',(1.,0.,0.));
#612=DIRECTION('',(0.,1.,0.));
#613=DIRECTION('',(-1.,0.,0.));
#614=DIRECTION('',(0.,-1.,0.));
#615=DIRECTION('',(-1.,0.,0.));
#616=DIRECTION('',(0.,1.,0.));
#617=DIRECTION('',(1.,0.,0.));
#618=DIRECTION('',(0.,1.,0.));
#619=DIRECTION('center_axis',(1.,0.,3.41607084500048E-16));
#620=DIRECTION('ref_axis',(3.41607084500048E-16,0.,-1.));
#621=DIRECTION('',(0.,0.,1.));
#622=DIRECTION('',(3.41607084500048E-16,0.,-1.));
#623=DIRECTION('center_axis',(0.,1.,0.));
#624=DIRECTION('ref_axis',(0.,0.,1.));
#625=DIRECTION('',(0.,0.,-1.));
#626=DIRECTION('center_axis',(-1.,0.,6.83214169000096E-16));
#627=DIRECTION('ref_axis',(6.83214169000096E-16,0.,1.));
#628=DIRECTION('',(0.,0.,1.));
#629=DIRECTION('',(6.83214169000096E-16,0.,1.));
#630=DIRECTION('center_axis',(0.,1.,0.));
#631=DIRECTION('ref_axis',(0.,0.,1.));
#632=DIRECTION('center_axis',(-1.,0.,0.));
#633=DIRECTION('ref_axis',(0.,0.,-1.));
#634=DIRECTION('',(0.,0.,-1.));
#635=DIRECTION('',(0.,1.,0.));
#636=DIRECTION('',(0.,0.,1.));
#637=DIRECTION('center_axis',(0.,-1.,0.));
#638=DIRECTION('ref_axis',(1.,0.,0.));
#639=DIRECTION('center_axis',(0.,0.,1.));
#640=DIRECTION('ref_axis',(1.,0.,0.));
#641=DIRECTION('',(1.,0.,0.));
#642=DIRECTION('',(0.,1.,0.));
#643=DIRECTION('',(1.,0.,0.));
#644=DIRECTION('center_axis',(0.,1.,0.));
#645=DIRECTION('ref_axis',(0.,0.,1.));
#646=DIRECTION('',(3.56698160522139E-17,0.,-1.));
#647=DIRECTION('',(1.,0.,0.));
#648=DIRECTION('',(0.,0.,1.));
#649=DIRECTION('',(0.,0.,-1.));
#650=DIRECTION('',(-1.,0.,0.));
#651=DIRECTION('center_axis',(0.,1.,0.));
#652=DIRECTION('ref_axis',(0.,0.,1.));
#653=DIRECTION('',(-1.,0.,0.));
#654=DIRECTION('',(0.,0.,-1.));
#655=DIRECTION('',(0.,0.,1.));
#656=DIRECTION('',(1.,0.,0.));
#657=DIRECTION('',(0.,0.,-1.));
#658=DIRECTION('center_axis',(0.,-1.,0.));
#659=DIRECTION('ref_axis',(1.,0.,0.));
#660=DIRECTION('center_axis',(0.,-1.,0.));
#661=DIRECTION('ref_axis',(1.,0.,0.));
#662=DIRECTION('center_axis',(0.,-1.,0.));
#663=DIRECTION('ref_axis',(1.,0.,0.));
#664=DIRECTION('center_axis',(0.,-1.,0.));
#665=DIRECTION('ref_axis',(1.,0.,0.));
#666=DIRECTION('center_axis',(0.,0.,-1.));
#667=DIRECTION('ref_axis',(-1.,0.,0.));
#668=DIRECTION('',(0.,1.,0.));
#669=DIRECTION('',(-1.,0.,0.));
#670=DIRECTION('',(0.,1.,0.));
#671=DIRECTION('center_axis',(-1.,0.,-3.56698160522139E-17));
#672=DIRECTION('ref_axis',(-3.56698160522139E-17,0.,1.));
#673=DIRECTION('',(-3.56698160522139E-17,0.,1.));
#674=DIRECTION('center_axis',(1.,0.,0.));
#675=DIRECTION('ref_axis',(0.,0.,-1.));
#676=DIRECTION('',(0.,0.,-1.));
#677=DIRECTION('center_axis',(0.,1.,0.));
#678=DIRECTION('ref_axis',(1.,0.,0.));
#679=DIRECTION('',(0.,-1.,0.));
#680=DIRECTION('center_axis',(0.,-1.,0.));
#681=DIRECTION('ref_axis',(1.,0.,0.));
#682=DIRECTION('center_axis',(0.,1.,0.));
#683=DIRECTION('ref_axis',(1.,0.,0.));
#684=DIRECTION('',(0.,-1.,0.));
#685=DIRECTION('center_axis',(0.,-1.,0.));
#686=DIRECTION('ref_axis',(1.,0.,0.));
#687=DIRECTION('center_axis',(0.,1.,0.));
#688=DIRECTION('ref_axis',(1.,0.,0.));
#689=DIRECTION('',(0.,-1.,0.));
#690=DIRECTION('center_axis',(0.,-1.,0.));
#691=DIRECTION('ref_axis',(1.,0.,0.));
#692=DIRECTION('center_axis',(0.,1.,0.));
#693=DIRECTION('ref_axis',(1.,0.,0.));
#694=DIRECTION('',(0.,-1.,0.));
#695=DIRECTION('center_axis',(0.,-1.,0.));
#696=DIRECTION('ref_axis',(1.,0.,0.));
#697=DIRECTION('center_axis',(-1.,0.,0.));
#698=DIRECTION('ref_axis',(0.,0.,1.));
#699=DIRECTION('',(0.,0.,-1.));
#700=DIRECTION('',(0.,1.,0.));
#701=DIRECTION('center_axis',(1.,0.,0.));
#702=DIRECTION('ref_axis',(0.,0.,-1.));
#703=DIRECTION('',(0.,0.,1.));
#704=DIRECTION('',(0.,1.,0.));
#705=DIRECTION('center_axis',(0.,0.,1.));
#706=DIRECTION('ref_axis',(1.,0.,0.));
#707=DIRECTION('',(-1.,0.,0.));
#708=DIRECTION('center_axis',(0.,1.,0.));
#709=DIRECTION('ref_axis',(1.,0.,0.));
#710=DIRECTION('center_axis',(0.,1.,0.));
#711=DIRECTION('ref_axis',(1.,0.,0.));
#712=DIRECTION('center_axis',(0.,0.,-1.));
#713=DIRECTION('ref_axis',(-1.,0.,0.));
#714=DIRECTION('',(0.,1.,0.));
#715=DIRECTION('center_axis',(1.,0.,0.));
#716=DIRECTION('ref_axis',(0.,0.,-1.));
#717=CARTESIAN_POINT('',(0.,0.,0.));
#718=CARTESIAN_POINT('Origin',(16.6744092575746,0.,-17.5112074633565));
#719=CARTESIAN_POINT('',(16.6744092575746,9.2,-20.5112074633565));
#720=CARTESIAN_POINT('',(16.6744092575746,9.2,-30.5112074633565));
#721=CARTESIAN_POINT('',(16.6744092575746,9.2,-20.7612074633565));
#722=CARTESIAN_POINT('',(16.6744092575746,10.,-20.5112074633565));
#723=CARTESIAN_POINT('',(16.6744092575746,0.,-20.5112074633565));
#724=CARTESIAN_POINT('',(16.6744092575746,10.,38.7387925366435));
#725=CARTESIAN_POINT('',(16.6744092575746,10.,-3.44870746335651));
#726=CARTESIAN_POINT('',(16.6744092575746,13.,38.7387925366435));
#727=CARTESIAN_POINT('',(16.6744092575746,0.,38.7387925366435));
#728=CARTESIAN_POINT('',(16.6744092575746,13.,-30.5112074633565));
#729=CARTESIAN_POINT('',(16.6744092575746,13.,-3.44870746335651));
#730=CARTESIAN_POINT('',(16.6744092575746,0.,-30.5112074633565));
#731=CARTESIAN_POINT('Origin',(-39.0755907424254,0.,-20.5112074633565));
#732=CARTESIAN_POINT('',(13.4201779819441,9.2,-20.5112074633565));
#733=CARTESIAN_POINT('',(-12.264148561333,9.2,-20.5112074633565));
#734=CARTESIAN_POINT('',(13.4201779819441,9.17956459882247,-20.5112074633565));
#735=CARTESIAN_POINT('',(13.4201779819441,6.2,-20.5112074633565));
#736=CARTESIAN_POINT('',(-0.36846994833682,9.17956459882247,-20.5112074633565));
#737=CARTESIAN_POINT('',(-19.7220303453811,9.17956459882247,-20.5112074633565));
#738=CARTESIAN_POINT('',(-0.368469948336822,9.2,-20.5112074633565));
#739=CARTESIAN_POINT('',(-0.368469948336822,6.2,-20.5112074633565));
#740=CARTESIAN_POINT('',(-3.47961443084002,9.2,-20.5112074633565));
#741=CARTESIAN_POINT('',(-20.4998164660069,9.2,-20.5112074633565));
#742=CARTESIAN_POINT('',(-3.47961443084002,10.,-20.5112074633565));
#743=CARTESIAN_POINT('',(-3.47961443084002,6.5,-20.5112074633565));
#744=CARTESIAN_POINT('',(-39.0755907424254,10.,-20.5112074633565));
#745=CARTESIAN_POINT('',(4.23690925757463,10.,-20.5112074633565));
#746=CARTESIAN_POINT('',(-39.0755907424254,3.,-20.5112074633565));
#747=CARTESIAN_POINT('',(-39.0755907424254,0.,-20.5112074633565));
#748=CARTESIAN_POINT('',(18.6744092575746,3.,-20.5112074633565));
#749=CARTESIAN_POINT('',(4.23690925757463,3.,-20.5112074633565));
#750=CARTESIAN_POINT('',(18.6744092575746,10.,-20.5112074633565));
#751=CARTESIAN_POINT('',(18.6744092575746,0.,-20.5112074633565));
#752=CARTESIAN_POINT('',(4.23690925757463,10.,-20.5112074633565));
#753=CARTESIAN_POINT('Origin',(28.6744092575746,0.,-30.5112074633565));
#754=CARTESIAN_POINT('',(13.4201779819441,9.2,-30.5112074633565));
#755=CARTESIAN_POINT('',(22.1744092575746,9.2,-30.5112074633565));
#756=CARTESIAN_POINT('',(28.6744092575746,13.,-30.5112074633565));
#757=CARTESIAN_POINT('',(-49.0755907424254,13.,-30.5112074633565));
#758=CARTESIAN_POINT('',(28.6744092575746,0.,-30.5112074633565));
#759=CARTESIAN_POINT('',(28.6744092575746,0.,-30.5112074633565));
#760=CARTESIAN_POINT('',(-49.0755907424254,0.,-30.5112074633565));
#761=CARTESIAN_POINT('',(-49.0755907424254,0.,-30.5112074633565));
#762=CARTESIAN_POINT('',(-49.0755907424254,13.,-30.5112074633565));
#763=CARTESIAN_POINT('',(-49.0755907424254,0.,-30.5112074633565));
#764=CARTESIAN_POINT('',(-3.47961443084002,13.,-30.5112074633565));
#765=CARTESIAN_POINT('',(-49.0755907424254,13.,-30.5112074633565));
#766=CARTESIAN_POINT('',(-3.47961443084002,9.2,-30.5112074633565));
#767=CARTESIAN_POINT('',(-3.47961443084002,6.5,-30.5112074633565));
#768=CARTESIAN_POINT('',(-0.368469948336818,9.2,-30.5112074633565));
#769=CARTESIAN_POINT('',(13.3751835339931,9.2,-30.5112074633565));
#770=CARTESIAN_POINT('',(-0.36846994833682,9.17956459882247,-30.5112074633565));
#771=CARTESIAN_POINT('',(-0.368469948336818,6.2,-30.5112074633565));
#772=CARTESIAN_POINT('',(13.4201779819441,9.17956459882247,-30.5112074633565));
#773=CARTESIAN_POINT('',(14.1529696546189,9.17956459882247,-30.5112074633565));
#774=CARTESIAN_POINT('',(13.4201779819441,6.2,-30.5112074633565));
#775=CARTESIAN_POINT('Origin',(-0.368469948336822,6.2,-20.5112074633565));
#776=CARTESIAN_POINT('',(-0.36846994833682,9.17956459882247,-30.5112074633565));
#777=CARTESIAN_POINT('',(-0.368469948336823,9.2,-17.5112074633565));
#778=CARTESIAN_POINT('Origin',(-1.92404218958842,9.2,-24.0112074633565));
#779=CARTESIAN_POINT('',(-3.47961443084002,9.2,-20.7612074633565));
#780=CARTESIAN_POINT('Origin',(13.4201779819441,6.2,-30.5112074633565));
#781=CARTESIAN_POINT('',(13.4201779819441,9.17956459882247,-30.5112074633565));
#782=CARTESIAN_POINT('',(13.4201779819441,9.2,-30.5112074633565));
#783=CARTESIAN_POINT('Origin',(14.5472936197594,9.2,-24.0112074633565));
#784=CARTESIAN_POINT('Origin',(-3.47961443084002,13.,-17.5112074633565));
#785=CARTESIAN_POINT('',(-3.47961443084002,13.,-17.5112074633565));
#786=CARTESIAN_POINT('',(-3.47961443084002,13.,-3.44870746335651));
#787=CARTESIAN_POINT('',(-3.47961443084002,10.,-17.5112074633565));
#788=CARTESIAN_POINT('',(-3.47961443084002,6.5,-17.5112074633565));
#789=CARTESIAN_POINT('',(-3.47961443084002,10.,-3.44870746335651));
#790=CARTESIAN_POINT('Origin',(-0.36846994833682,9.17956459882247,-30.5112074633565));
#791=CARTESIAN_POINT('Origin',(-36.0755907424254,0.,-17.5112074633565));
#792=CARTESIAN_POINT('',(-36.0755907424254,13.,-17.5112074633565));
#793=CARTESIAN_POINT('',(-36.0755907424254,13.,-17.5112074633565));
#794=CARTESIAN_POINT('',(-36.0755907424254,10.,-17.5112074633565));
#795=CARTESIAN_POINT('',(-36.0755907424254,0.,-17.5112074633565));
#796=CARTESIAN_POINT('',(-23.1380907424254,10.,-17.5112074633565));
#797=CARTESIAN_POINT('Origin',(-10.2005907424254,10.,10.6137925366435));
#798=CARTESIAN_POINT('',(18.6744092575746,10.,41.7387925366435));
#799=CARTESIAN_POINT('',(18.6744092575746,10.,26.1762925366435));
#800=CARTESIAN_POINT('',(-39.0755907424254,10.,41.7387925366435));
#801=CARTESIAN_POINT('',(-24.6380907424254,10.,41.7387925366435));
#802=CARTESIAN_POINT('',(-39.0755907424254,10.,-4.94870746335652));
#803=CARTESIAN_POINT('',(-36.0755907424254,10.,38.7387925366435));
#804=CARTESIAN_POINT('',(-36.0755907424254,10.,24.6762925366435));
#805=CARTESIAN_POINT('',(2.73690925757463,10.,38.7387925366435));
#806=CARTESIAN_POINT('Origin',(-10.2005907424254,13.,10.6137925366435));
#807=CARTESIAN_POINT('',(-36.0755907424254,13.,38.7387925366435));
#808=CARTESIAN_POINT('',(2.73690925757463,13.,38.7387925366435));
#809=CARTESIAN_POINT('',(-36.0755907424254,13.,38.7387925366435));
#810=CARTESIAN_POINT('',(-49.0755907424254,13.,51.7387925366435));
#811=CARTESIAN_POINT('',(-49.0755907424254,13.,51.7387925366435));
#812=CARTESIAN_POINT('',(28.6744092575746,13.,51.7387925366435));
#813=CARTESIAN_POINT('',(28.6744092575746,13.,51.7387925366435));
#814=CARTESIAN_POINT('',(28.6744092575746,13.,-30.5112074633565));
#815=CARTESIAN_POINT('',(-45.5255907424254,13.,46.7387925366435));
#816=CARTESIAN_POINT('Origin',(-44.0755907424254,13.,46.7387925366435));
#817=CARTESIAN_POINT('',(-45.5255907424254,13.,-25.5112074633565));
#818=CARTESIAN_POINT('Origin',(-44.0755907424254,13.,-25.5112074633565));
#819=CARTESIAN_POINT('',(22.2244092575746,13.,46.7387925366435));
#820=CARTESIAN_POINT('Origin',(23.6744092575746,13.,46.7387925366435));
#821=CARTESIAN_POINT('',(22.2244092575746,13.,-25.5112074633565));
#822=CARTESIAN_POINT('Origin',(23.6744092575746,13.,-25.5112074633565));
#823=CARTESIAN_POINT('Origin',(18.6744092575746,0.,41.7387925366435));
#824=CARTESIAN_POINT('',(18.6744092575746,3.,41.7387925366435));
#825=CARTESIAN_POINT('',(18.6744092575746,0.,41.7387925366435));
#826=CARTESIAN_POINT('',(-39.0755907424254,3.,41.7387925366435));
#827=CARTESIAN_POINT('',(-24.6380907424254,3.,41.7387925366435));
#828=CARTESIAN_POINT('',(-39.0755907424254,0.,41.7387925366435));
#829=CARTESIAN_POINT('Origin',(18.6744092575746,0.,-20.5112074633565));
#830=CARTESIAN_POINT('',(18.6744092575746,3.,26.1762925366435));
#831=CARTESIAN_POINT('Origin',(-39.0755907424254,0.,41.7387925366435));
#832=CARTESIAN_POINT('',(-39.0755907424254,3.,-4.94870746335652));
#833=CARTESIAN_POINT('Origin',(23.6744092575746,0.,-25.5112074633565));
#834=CARTESIAN_POINT('',(22.2244092575746,0.,-25.5112074633565));
#835=CARTESIAN_POINT('',(22.2244092575746,0.,-25.5112074633565));
#836=CARTESIAN_POINT('Origin',(23.6744092575746,0.,-25.5112074633565));
#837=CARTESIAN_POINT('Origin',(23.6744092575746,0.,46.7387925366435));
#838=CARTESIAN_POINT('',(22.2244092575746,0.,46.7387925366435));
#839=CARTESIAN_POINT('',(22.2244092575746,0.,46.7387925366435));
#840=CARTESIAN_POINT('Origin',(23.6744092575746,0.,46.7387925366435));
#841=CARTESIAN_POINT('Origin',(-44.0755907424254,0.,-25.5112074633565));
#842=CARTESIAN_POINT('',(-45.5255907424254,0.,-25.5112074633565));
#843=CARTESIAN_POINT('',(-45.5255907424254,0.,-25.5112074633565));
#844=CARTESIAN_POINT('Origin',(-44.0755907424254,0.,-25.5112074633565));
#845=CARTESIAN_POINT('Origin',(-44.0755907424254,0.,46.7387925366435));
#846=CARTESIAN_POINT('',(-45.5255907424254,0.,46.7387925366435));
#847=CARTESIAN_POINT('',(-45.5255907424254,0.,46.7387925366435));
#848=CARTESIAN_POINT('Origin',(-44.0755907424254,0.,46.7387925366435));
#849=CARTESIAN_POINT('Origin',(-49.0755907424254,0.,-30.5112074633565));
#850=CARTESIAN_POINT('',(-49.0755907424254,0.,51.7387925366435));
#851=CARTESIAN_POINT('',(-49.0755907424254,0.,51.7387925366435));
#852=CARTESIAN_POINT('',(-49.0755907424254,0.,51.7387925366435));
#853=CARTESIAN_POINT('Origin',(28.6744092575746,0.,51.7387925366435));
#854=CARTESIAN_POINT('',(28.6744092575746,0.,51.7387925366435));
#855=CARTESIAN_POINT('',(28.6744092575746,0.,-30.5112074633565));
#856=CARTESIAN_POINT('',(28.6744092575746,0.,51.7387925366435));
#857=CARTESIAN_POINT('Origin',(-49.0755907424254,0.,51.7387925366435));
#858=CARTESIAN_POINT('',(28.6744092575746,0.,51.7387925366435));
#859=CARTESIAN_POINT('Origin',(-10.2005907424254,0.,10.6137925366435));
#860=CARTESIAN_POINT('Origin',(-10.2005907424254,3.,10.6137925366435));
#861=CARTESIAN_POINT('Origin',(15.6744092575746,0.,38.7387925366435));
#862=CARTESIAN_POINT('',(-36.0755907424254,0.,38.7387925366435));
#863=CARTESIAN_POINT('Origin',(-36.0755907424254,0.,38.7387925366435));
#864=UNCERTAINTY_MEASURE_WITH_UNIT(LENGTH_MEASURE(0.01),#868,
'DISTANCE_ACCURACY_VALUE',
'Maximum model space distance between geometric entities at asserted c
onnectivities');
#865=UNCERTAINTY_MEASURE_WITH_UNIT(LENGTH_MEASURE(0.01),#868,
'DISTANCE_ACCURACY_VALUE',
'Maximum model space distance between geometric entities at asserted c
onnectivities');
#866=(
GEOMETRIC_REPRESENTATION_CONTEXT(3)
GLOBAL_UNCERTAINTY_ASSIGNED_CONTEXT((#864))
GLOBAL_UNIT_ASSIGNED_CONTEXT((#868,#870,#871))
REPRESENTATION_CONTEXT('','3D')
);
#867=(
GEOMETRIC_REPRESENTATION_CONTEXT(3)
GLOBAL_UNCERTAINTY_ASSIGNED_CONTEXT((#865))
GLOBAL_UNIT_ASSIGNED_CONTEXT((#868,#870,#871))
REPRESENTATION_CONTEXT('','3D')
);
#868=(
LENGTH_UNIT()
NAMED_UNIT(*)
SI_UNIT(.MILLI.,.METRE.)
);
#869=(
LENGTH_UNIT()
NAMED_UNIT(*)
SI_UNIT($,.METRE.)
);
#870=(
NAMED_UNIT(*)
PLANE_ANGLE_UNIT()
SI_UNIT($,.RADIAN.)
);
#871=(
NAMED_UNIT(*)
SI_UNIT($,.STERADIAN.)
SOLID_ANGLE_UNIT()
);
#872=SHAPE_DEFINITION_REPRESENTATION(#873,#874);
#873=PRODUCT_DEFINITION_SHAPE('',$,#876);
#874=SHAPE_REPRESENTATION('',(#548),#866);
#875=PRODUCT_DEFINITION_CONTEXT('part definition',#880,'design');
#876=PRODUCT_DEFINITION('2026-05-18-20-34-42-507',
'SabhyaPad Case Render',#877,#875);
#877=PRODUCT_DEFINITION_FORMATION('',$,#882);
#878=PRODUCT_RELATED_PRODUCT_CATEGORY('SabhyaPad Case Render',
'SabhyaPad Case Render',(#882));
#879=APPLICATION_PROTOCOL_DEFINITION('international standard',
'automotive_design',2009,#880);
#880=APPLICATION_CONTEXT(
'Core Data for Automotive Mechanical Design Process');
#881=PRODUCT_CONTEXT('part definition',#880,'mechanical');
#882=PRODUCT('2026-05-18-20-34-42-507','SabhyaPad Case Render',$,(#881));
#883=PRESENTATION_STYLE_ASSIGNMENT((#884));
#884=SURFACE_STYLE_USAGE(.BOTH.,#885);
#885=SURFACE_SIDE_STYLE('',(#886));
#886=SURFACE_STYLE_FILL_AREA(#887);
#887=FILL_AREA_STYLE('Steel - Satin',(#888));
#888=FILL_AREA_STYLE_COLOUR('Steel - Satin',#889);
#889=COLOUR_RGB('Steel - Satin',0.627450980392157,0.627450980392157,0.627450980392157);
ENDSEC;
END-ISO-10303-21;
