ISO-10303-21;
HEADER;
/* Generated by software containing ST-Developer
 * from STEP Tools, Inc. (www.steptools.com) 
 */

FILE_DESCRIPTION(
/* description */ (''),
/* implementation_level */ '2;1');

FILE_NAME(
/* name */ 'SabhyaPad Case Cut.step',
/* time_stamp */ '2026-06-10T23:38:53+05:30',
/* author */ (''),
/* organization */ (''),
/* preprocessor_version */ 'ST-DEVELOPER v20.1',
/* originating_system */ 'Autodesk Translation Framework v15.8.0.0',
/* authorisation */ '');

FILE_SCHEMA (('AUTOMOTIVE_DESIGN { 1 0 10303 214 3 1 1 }'));
ENDSEC;

DATA;
#10=MECHANICAL_DESIGN_GEOMETRIC_PRESENTATION_REPRESENTATION('',(#13,#14),
#1184);
#11=SHAPE_REPRESENTATION_RELATIONSHIP('SRR','None',#1191,#12);
#12=ADVANCED_BREP_SHAPE_REPRESENTATION('',(#15,#16),#1183);
#13=STYLED_ITEM('',(#1200),#15);
#14=STYLED_ITEM('',(#1200),#16);
#15=MANIFOLD_SOLID_BREP('Body20',#727);
#16=MANIFOLD_SOLID_BREP('Body22',#728);
#17=CYLINDRICAL_SURFACE('',#751,1.45);
#18=CYLINDRICAL_SURFACE('',#753,1.45);
#19=CYLINDRICAL_SURFACE('',#755,1.45);
#20=CYLINDRICAL_SURFACE('',#757,1.45);
#21=CYLINDRICAL_SURFACE('',#788,1.45);
#22=CYLINDRICAL_SURFACE('',#789,1.45);
#23=CYLINDRICAL_SURFACE('',#790,1.45);
#24=CYLINDRICAL_SURFACE('',#791,1.45);
#25=FACE_BOUND('',#99,.T.);
#26=FACE_BOUND('',#100,.T.);
#27=FACE_BOUND('',#101,.T.);
#28=FACE_BOUND('',#102,.T.);
#29=FACE_BOUND('',#114,.T.);
#30=FACE_BOUND('',#115,.T.);
#31=FACE_BOUND('',#116,.T.);
#32=FACE_BOUND('',#117,.T.);
#33=FACE_BOUND('',#118,.T.);
#34=FACE_BOUND('',#120,.T.);
#35=FACE_BOUND('',#121,.T.);
#36=FACE_BOUND('',#122,.T.);
#37=FACE_BOUND('',#123,.T.);
#38=FACE_BOUND('',#137,.T.);
#39=FACE_BOUND('',#138,.T.);
#40=FACE_BOUND('',#139,.T.);
#41=FACE_BOUND('',#140,.T.);
#42=CIRCLE('',#746,1.45);
#43=CIRCLE('',#747,1.45);
#44=CIRCLE('',#748,1.45);
#45=CIRCLE('',#749,1.45);
#46=CIRCLE('',#752,1.45);
#47=CIRCLE('',#754,1.45);
#48=CIRCLE('',#756,1.45);
#49=CIRCLE('',#758,1.45);
#50=CIRCLE('',#766,1.45);
#51=CIRCLE('',#767,1.45);
#52=CIRCLE('',#768,1.45);
#53=CIRCLE('',#769,1.45);
#54=CIRCLE('',#783,1.45);
#55=CIRCLE('',#784,1.45);
#56=CIRCLE('',#785,1.45);
#57=CIRCLE('',#786,1.45);
#58=FACE_OUTER_BOUND('',#95,.T.);
#59=FACE_OUTER_BOUND('',#96,.T.);
#60=FACE_OUTER_BOUND('',#97,.T.);
#61=FACE_OUTER_BOUND('',#98,.T.);
#62=FACE_OUTER_BOUND('',#103,.T.);
#63=FACE_OUTER_BOUND('',#104,.T.);
#64=FACE_OUTER_BOUND('',#105,.T.);
#65=FACE_OUTER_BOUND('',#106,.T.);
#66=FACE_OUTER_BOUND('',#107,.T.);
#67=FACE_OUTER_BOUND('',#108,.T.);
#68=FACE_OUTER_BOUND('',#109,.T.);
#69=FACE_OUTER_BOUND('',#110,.T.);
#70=FACE_OUTER_BOUND('',#111,.T.);
#71=FACE_OUTER_BOUND('',#112,.T.);
#72=FACE_OUTER_BOUND('',#113,.T.);
#73=FACE_OUTER_BOUND('',#119,.T.);
#74=FACE_OUTER_BOUND('',#124,.T.);
#75=FACE_OUTER_BOUND('',#125,.T.);
#76=FACE_OUTER_BOUND('',#126,.T.);
#77=FACE_OUTER_BOUND('',#127,.T.);
#78=FACE_OUTER_BOUND('',#128,.T.);
#79=FACE_OUTER_BOUND('',#129,.T.);
#80=FACE_OUTER_BOUND('',#130,.T.);
#81=FACE_OUTER_BOUND('',#131,.T.);
#82=FACE_OUTER_BOUND('',#132,.T.);
#83=FACE_OUTER_BOUND('',#133,.T.);
#84=FACE_OUTER_BOUND('',#134,.T.);
#85=FACE_OUTER_BOUND('',#135,.T.);
#86=FACE_OUTER_BOUND('',#136,.T.);
#87=FACE_OUTER_BOUND('',#141,.T.);
#88=FACE_OUTER_BOUND('',#142,.T.);
#89=FACE_OUTER_BOUND('',#143,.T.);
#90=FACE_OUTER_BOUND('',#144,.T.);
#91=FACE_OUTER_BOUND('',#145,.T.);
#92=FACE_OUTER_BOUND('',#146,.T.);
#93=FACE_OUTER_BOUND('',#147,.T.);
#94=FACE_OUTER_BOUND('',#148,.T.);
#95=EDGE_LOOP('',(#469,#470,#471,#472));
#96=EDGE_LOOP('',(#473,#474,#475,#476));
#97=EDGE_LOOP('',(#477,#478,#479,#480));
#98=EDGE_LOOP('',(#481,#482,#483,#484));
#99=EDGE_LOOP('',(#485));
#100=EDGE_LOOP('',(#486));
#101=EDGE_LOOP('',(#487));
#102=EDGE_LOOP('',(#488));
#103=EDGE_LOOP('',(#489,#490,#491,#492));
#104=EDGE_LOOP('',(#493,#494,#495,#496));
#105=EDGE_LOOP('',(#497,#498,#499,#500));
#106=EDGE_LOOP('',(#501,#502,#503,#504));
#107=EDGE_LOOP('',(#505,#506,#507,#508));
#108=EDGE_LOOP('',(#509,#510,#511,#512));
#109=EDGE_LOOP('',(#513,#514,#515,#516));
#110=EDGE_LOOP('',(#517,#518,#519,#520));
#111=EDGE_LOOP('',(#521,#522,#523,#524));
#112=EDGE_LOOP('',(#525,#526,#527,#528));
#113=EDGE_LOOP('',(#529,#530,#531,#532));
#114=EDGE_LOOP('',(#533,#534,#535,#536));
#115=EDGE_LOOP('',(#537));
#116=EDGE_LOOP('',(#538));
#117=EDGE_LOOP('',(#539));
#118=EDGE_LOOP('',(#540));
#119=EDGE_LOOP('',(#541,#542,#543,#544,#545,#546,#547,#548,#549,#550,#551,
#552));
#120=EDGE_LOOP('',(#553));
#121=EDGE_LOOP('',(#554));
#122=EDGE_LOOP('',(#555));
#123=EDGE_LOOP('',(#556));
#124=EDGE_LOOP('',(#557,#558,#559,#560));
#125=EDGE_LOOP('',(#561,#562,#563,#564));
#126=EDGE_LOOP('',(#565,#566,#567,#568));
#127=EDGE_LOOP('',(#569,#570,#571,#572));
#128=EDGE_LOOP('',(#573,#574,#575,#576));
#129=EDGE_LOOP('',(#577,#578,#579,#580));
#130=EDGE_LOOP('',(#581,#582,#583,#584));
#131=EDGE_LOOP('',(#585,#586,#587,#588));
#132=EDGE_LOOP('',(#589,#590,#591,#592));
#133=EDGE_LOOP('',(#593,#594,#595,#596));
#134=EDGE_LOOP('',(#597,#598,#599,#600,#601,#602));
#135=EDGE_LOOP('',(#603,#604,#605,#606,#607,#608,#609,#610,#611,#612));
#136=EDGE_LOOP('',(#613,#614,#615,#616,#617,#618,#619,#620,#621,#622));
#137=EDGE_LOOP('',(#623));
#138=EDGE_LOOP('',(#624));
#139=EDGE_LOOP('',(#625));
#140=EDGE_LOOP('',(#626));
#141=EDGE_LOOP('',(#627,#628,#629,#630));
#142=EDGE_LOOP('',(#631,#632,#633,#634));
#143=EDGE_LOOP('',(#635,#636,#637,#638));
#144=EDGE_LOOP('',(#639,#640,#641,#642));
#145=EDGE_LOOP('',(#643,#644,#645,#646));
#146=EDGE_LOOP('',(#647,#648,#649,#650,#651,#652));
#147=EDGE_LOOP('',(#653,#654,#655,#656));
#148=EDGE_LOOP('',(#657,#658,#659,#660));
#149=LINE('',#987,#229);
#150=LINE('',#989,#230);
#151=LINE('',#991,#231);
#152=LINE('',#992,#232);
#153=LINE('',#996,#233);
#154=LINE('',#998,#234);
#155=LINE('',#1000,#235);
#156=LINE('',#1001,#236);
#157=LINE('',#1004,#237);
#158=LINE('',#1006,#238);
#159=LINE('',#1007,#239);
#160=LINE('',#1010,#240);
#161=LINE('',#1012,#241);
#162=LINE('',#1013,#242);
#163=LINE('',#1024,#243);
#164=LINE('',#1025,#244);
#165=LINE('',#1029,#245);
#166=LINE('',#1033,#246);
#167=LINE('',#1037,#247);
#168=LINE('',#1041,#248);
#169=LINE('',#1044,#249);
#170=LINE('',#1045,#250);
#171=LINE('',#1048,#251);
#172=LINE('',#1049,#252);
#173=LINE('',#1051,#253);
#174=LINE('',#1054,#254);
#175=LINE('',#1055,#255);
#176=LINE('',#1057,#256);
#177=LINE('',#1062,#257);
#178=LINE('',#1064,#258);
#179=LINE('',#1066,#259);
#180=LINE('',#1068,#260);
#181=LINE('',#1070,#261);
#182=LINE('',#1072,#262);
#183=LINE('',#1074,#263);
#184=LINE('',#1076,#264);
#185=LINE('',#1078,#265);
#186=LINE('',#1080,#266);
#187=LINE('',#1082,#267);
#188=LINE('',#1083,#268);
#189=LINE('',#1094,#269);
#190=LINE('',#1096,#270);
#191=LINE('',#1097,#271);
#192=LINE('',#1100,#272);
#193=LINE('',#1101,#273);
#194=LINE('',#1104,#274);
#195=LINE('',#1105,#275);
#196=LINE('',#1108,#276);
#197=LINE('',#1110,#277);
#198=LINE('',#1111,#278);
#199=LINE('',#1114,#279);
#200=LINE('',#1115,#280);
#201=LINE('',#1118,#281);
#202=LINE('',#1120,#282);
#203=LINE('',#1121,#283);
#204=LINE('',#1124,#284);
#205=LINE('',#1126,#285);
#206=LINE('',#1127,#286);
#207=LINE('',#1130,#287);
#208=LINE('',#1131,#288);
#209=LINE('',#1133,#289);
#210=LINE('',#1135,#290);
#211=LINE('',#1138,#291);
#212=LINE('',#1140,#292);
#213=LINE('',#1141,#293);
#214=LINE('',#1144,#294);
#215=LINE('',#1146,#295);
#216=LINE('',#1148,#296);
#217=LINE('',#1149,#297);
#218=LINE('',#1152,#298);
#219=LINE('',#1154,#299);
#220=LINE('',#1156,#300);
#221=LINE('',#1157,#301);
#222=LINE('',#1167,#302);
#223=LINE('',#1169,#303);
#224=LINE('',#1171,#304);
#225=LINE('',#1173,#305);
#226=LINE('',#1175,#306);
#227=LINE('',#1177,#307);
#228=LINE('',#1179,#308);
#229=VECTOR('',#799,10.);
#230=VECTOR('',#800,10.);
#231=VECTOR('',#801,10.);
#232=VECTOR('',#802,10.);
#233=VECTOR('',#805,10.);
#234=VECTOR('',#806,10.);
#235=VECTOR('',#807,10.);
#236=VECTOR('',#808,10.);
#237=VECTOR('',#811,10.);
#238=VECTOR('',#812,10.);
#239=VECTOR('',#813,10.);
#240=VECTOR('',#816,10.);
#241=VECTOR('',#817,10.);
#242=VECTOR('',#818,10.);
#243=VECTOR('',#829,10.);
#244=VECTOR('',#830,10.);
#245=VECTOR('',#835,1.45);
#246=VECTOR('',#840,1.45);
#247=VECTOR('',#845,1.45);
#248=VECTOR('',#850,1.45);
#249=VECTOR('',#853,10.);
#250=VECTOR('',#854,10.);
#251=VECTOR('',#857,10.);
#252=VECTOR('',#858,10.);
#253=VECTOR('',#861,10.);
#254=VECTOR('',#864,10.);
#255=VECTOR('',#865,10.);
#256=VECTOR('',#868,10.);
#257=VECTOR('',#873,10.);
#258=VECTOR('',#874,10.);
#259=VECTOR('',#875,10.);
#260=VECTOR('',#876,10.);
#261=VECTOR('',#877,10.);
#262=VECTOR('',#878,10.);
#263=VECTOR('',#879,10.);
#264=VECTOR('',#880,10.);
#265=VECTOR('',#881,10.);
#266=VECTOR('',#882,10.);
#267=VECTOR('',#883,10.);
#268=VECTOR('',#884,10.);
#269=VECTOR('',#895,10.);
#270=VECTOR('',#896,10.);
#271=VECTOR('',#897,10.);
#272=VECTOR('',#900,10.);
#273=VECTOR('',#901,10.);
#274=VECTOR('',#904,10.);
#275=VECTOR('',#905,10.);
#276=VECTOR('',#908,10.);
#277=VECTOR('',#909,10.);
#278=VECTOR('',#910,10.);
#279=VECTOR('',#913,10.);
#280=VECTOR('',#914,10.);
#281=VECTOR('',#917,10.);
#282=VECTOR('',#918,10.);
#283=VECTOR('',#919,10.);
#284=VECTOR('',#922,10.);
#285=VECTOR('',#923,10.);
#286=VECTOR('',#924,10.);
#287=VECTOR('',#927,10.);
#288=VECTOR('',#928,10.);
#289=VECTOR('',#931,10.);
#290=VECTOR('',#934,10.);
#291=VECTOR('',#937,10.);
#292=VECTOR('',#938,10.);
#293=VECTOR('',#939,10.);
#294=VECTOR('',#942,10.);
#295=VECTOR('',#943,10.);
#296=VECTOR('',#944,10.);
#297=VECTOR('',#945,10.);
#298=VECTOR('',#948,10.);
#299=VECTOR('',#949,10.);
#300=VECTOR('',#950,10.);
#301=VECTOR('',#951,10.);
#302=VECTOR('',#962,10.);
#303=VECTOR('',#965,1.45);
#304=VECTOR('',#968,1.45);
#305=VECTOR('',#971,1.45);
#306=VECTOR('',#974,1.45);
#307=VECTOR('',#977,10.);
#308=VECTOR('',#980,10.);
#309=VERTEX_POINT('',#985);
#310=VERTEX_POINT('',#986);
#311=VERTEX_POINT('',#988);
#312=VERTEX_POINT('',#990);
#313=VERTEX_POINT('',#994);
#314=VERTEX_POINT('',#995);
#315=VERTEX_POINT('',#997);
#316=VERTEX_POINT('',#999);
#317=VERTEX_POINT('',#1003);
#318=VERTEX_POINT('',#1005);
#319=VERTEX_POINT('',#1009);
#320=VERTEX_POINT('',#1011);
#321=VERTEX_POINT('',#1014);
#322=VERTEX_POINT('',#1016);
#323=VERTEX_POINT('',#1018);
#324=VERTEX_POINT('',#1020);
#325=VERTEX_POINT('',#1023);
#326=VERTEX_POINT('',#1027);
#327=VERTEX_POINT('',#1031);
#328=VERTEX_POINT('',#1035);
#329=VERTEX_POINT('',#1039);
#330=VERTEX_POINT('',#1043);
#331=VERTEX_POINT('',#1047);
#332=VERTEX_POINT('',#1053);
#333=VERTEX_POINT('',#1060);
#334=VERTEX_POINT('',#1061);
#335=VERTEX_POINT('',#1063);
#336=VERTEX_POINT('',#1065);
#337=VERTEX_POINT('',#1067);
#338=VERTEX_POINT('',#1069);
#339=VERTEX_POINT('',#1071);
#340=VERTEX_POINT('',#1073);
#341=VERTEX_POINT('',#1075);
#342=VERTEX_POINT('',#1077);
#343=VERTEX_POINT('',#1079);
#344=VERTEX_POINT('',#1081);
#345=VERTEX_POINT('',#1084);
#346=VERTEX_POINT('',#1086);
#347=VERTEX_POINT('',#1088);
#348=VERTEX_POINT('',#1090);
#349=VERTEX_POINT('',#1093);
#350=VERTEX_POINT('',#1095);
#351=VERTEX_POINT('',#1099);
#352=VERTEX_POINT('',#1103);
#353=VERTEX_POINT('',#1107);
#354=VERTEX_POINT('',#1109);
#355=VERTEX_POINT('',#1113);
#356=VERTEX_POINT('',#1117);
#357=VERTEX_POINT('',#1119);
#358=VERTEX_POINT('',#1123);
#359=VERTEX_POINT('',#1125);
#360=VERTEX_POINT('',#1129);
#361=VERTEX_POINT('',#1137);
#362=VERTEX_POINT('',#1139);
#363=VERTEX_POINT('',#1143);
#364=VERTEX_POINT('',#1145);
#365=VERTEX_POINT('',#1147);
#366=VERTEX_POINT('',#1151);
#367=VERTEX_POINT('',#1153);
#368=VERTEX_POINT('',#1155);
#369=VERTEX_POINT('',#1158);
#370=VERTEX_POINT('',#1160);
#371=VERTEX_POINT('',#1162);
#372=VERTEX_POINT('',#1164);
#373=EDGE_CURVE('',#309,#310,#149,.T.);
#374=EDGE_CURVE('',#311,#309,#150,.T.);
#375=EDGE_CURVE('',#312,#311,#151,.T.);
#376=EDGE_CURVE('',#312,#310,#152,.T.);
#377=EDGE_CURVE('',#313,#314,#153,.T.);
#378=EDGE_CURVE('',#315,#313,#154,.T.);
#379=EDGE_CURVE('',#315,#316,#155,.T.);
#380=EDGE_CURVE('',#316,#314,#156,.T.);
#381=EDGE_CURVE('',#317,#313,#157,.T.);
#382=EDGE_CURVE('',#318,#317,#158,.T.);
#383=EDGE_CURVE('',#318,#315,#159,.T.);
#384=EDGE_CURVE('',#319,#312,#160,.T.);
#385=EDGE_CURVE('',#311,#320,#161,.T.);
#386=EDGE_CURVE('',#320,#319,#162,.T.);
#387=EDGE_CURVE('',#321,#321,#42,.T.);
#388=EDGE_CURVE('',#322,#322,#43,.T.);
#389=EDGE_CURVE('',#323,#323,#44,.T.);
#390=EDGE_CURVE('',#324,#324,#45,.T.);
#391=EDGE_CURVE('',#325,#318,#163,.T.);
#392=EDGE_CURVE('',#316,#325,#164,.T.);
#393=EDGE_CURVE('',#326,#326,#46,.T.);
#394=EDGE_CURVE('',#326,#324,#165,.T.);
#395=EDGE_CURVE('',#327,#327,#47,.T.);
#396=EDGE_CURVE('',#327,#323,#166,.T.);
#397=EDGE_CURVE('',#328,#328,#48,.T.);
#398=EDGE_CURVE('',#328,#322,#167,.T.);
#399=EDGE_CURVE('',#329,#329,#49,.T.);
#400=EDGE_CURVE('',#329,#321,#168,.T.);
#401=EDGE_CURVE('',#310,#330,#169,.T.);
#402=EDGE_CURVE('',#319,#330,#170,.T.);
#403=EDGE_CURVE('',#330,#331,#171,.T.);
#404=EDGE_CURVE('',#320,#331,#172,.T.);
#405=EDGE_CURVE('',#331,#309,#173,.T.);
#406=EDGE_CURVE('',#314,#332,#174,.T.);
#407=EDGE_CURVE('',#325,#332,#175,.T.);
#408=EDGE_CURVE('',#332,#317,#176,.T.);
#409=EDGE_CURVE('',#333,#334,#177,.T.);
#410=EDGE_CURVE('',#335,#333,#178,.T.);
#411=EDGE_CURVE('',#336,#335,#179,.T.);
#412=EDGE_CURVE('',#336,#337,#180,.T.);
#413=EDGE_CURVE('',#338,#337,#181,.T.);
#414=EDGE_CURVE('',#339,#338,#182,.T.);
#415=EDGE_CURVE('',#340,#339,#183,.T.);
#416=EDGE_CURVE('',#341,#340,#184,.T.);
#417=EDGE_CURVE('',#342,#341,#185,.T.);
#418=EDGE_CURVE('',#342,#343,#186,.T.);
#419=EDGE_CURVE('',#344,#343,#187,.T.);
#420=EDGE_CURVE('',#334,#344,#188,.T.);
#421=EDGE_CURVE('',#345,#345,#50,.T.);
#422=EDGE_CURVE('',#346,#346,#51,.T.);
#423=EDGE_CURVE('',#347,#347,#52,.T.);
#424=EDGE_CURVE('',#348,#348,#53,.T.);
#425=EDGE_CURVE('',#339,#349,#189,.T.);
#426=EDGE_CURVE('',#349,#350,#190,.T.);
#427=EDGE_CURVE('',#340,#350,#191,.T.);
#428=EDGE_CURVE('',#338,#351,#192,.T.);
#429=EDGE_CURVE('',#351,#349,#193,.T.);
#430=EDGE_CURVE('',#337,#352,#194,.T.);
#431=EDGE_CURVE('',#352,#351,#195,.T.);
#432=EDGE_CURVE('',#335,#353,#196,.T.);
#433=EDGE_CURVE('',#354,#353,#197,.T.);
#434=EDGE_CURVE('',#354,#336,#198,.T.);
#435=EDGE_CURVE('',#333,#355,#199,.T.);
#436=EDGE_CURVE('',#353,#355,#200,.T.);
#437=EDGE_CURVE('',#343,#356,#201,.T.);
#438=EDGE_CURVE('',#357,#356,#202,.T.);
#439=EDGE_CURVE('',#344,#357,#203,.T.);
#440=EDGE_CURVE('',#341,#358,#204,.T.);
#441=EDGE_CURVE('',#358,#359,#205,.T.);
#442=EDGE_CURVE('',#359,#342,#206,.T.);
#443=EDGE_CURVE('',#334,#360,#207,.T.);
#444=EDGE_CURVE('',#355,#360,#208,.T.);
#445=EDGE_CURVE('',#360,#357,#209,.T.);
#446=EDGE_CURVE('',#350,#358,#210,.T.);
#447=EDGE_CURVE('',#361,#354,#211,.T.);
#448=EDGE_CURVE('',#362,#361,#212,.T.);
#449=EDGE_CURVE('',#352,#362,#213,.T.);
#450=EDGE_CURVE('',#359,#363,#214,.T.);
#451=EDGE_CURVE('',#364,#362,#215,.T.);
#452=EDGE_CURVE('',#365,#364,#216,.T.);
#453=EDGE_CURVE('',#363,#365,#217,.T.);
#454=EDGE_CURVE('',#356,#366,#218,.T.);
#455=EDGE_CURVE('',#366,#367,#219,.T.);
#456=EDGE_CURVE('',#367,#368,#220,.T.);
#457=EDGE_CURVE('',#368,#361,#221,.T.);
#458=EDGE_CURVE('',#369,#369,#54,.T.);
#459=EDGE_CURVE('',#370,#370,#55,.T.);
#460=EDGE_CURVE('',#371,#371,#56,.T.);
#461=EDGE_CURVE('',#372,#372,#57,.T.);
#462=EDGE_CURVE('',#364,#368,#222,.T.);
#463=EDGE_CURVE('',#372,#348,#223,.T.);
#464=EDGE_CURVE('',#371,#347,#224,.T.);
#465=EDGE_CURVE('',#370,#346,#225,.T.);
#466=EDGE_CURVE('',#369,#345,#226,.T.);
#467=EDGE_CURVE('',#363,#366,#227,.T.);
#468=EDGE_CURVE('',#365,#367,#228,.T.);
#469=ORIENTED_EDGE('',*,*,#373,.F.);
#470=ORIENTED_EDGE('',*,*,#374,.F.);
#471=ORIENTED_EDGE('',*,*,#375,.F.);
#472=ORIENTED_EDGE('',*,*,#376,.T.);
#473=ORIENTED_EDGE('',*,*,#377,.F.);
#474=ORIENTED_EDGE('',*,*,#378,.F.);
#475=ORIENTED_EDGE('',*,*,#379,.T.);
#476=ORIENTED_EDGE('',*,*,#380,.T.);
#477=ORIENTED_EDGE('',*,*,#381,.F.);
#478=ORIENTED_EDGE('',*,*,#382,.F.);
#479=ORIENTED_EDGE('',*,*,#383,.T.);
#480=ORIENTED_EDGE('',*,*,#378,.T.);
#481=ORIENTED_EDGE('',*,*,#384,.T.);
#482=ORIENTED_EDGE('',*,*,#375,.T.);
#483=ORIENTED_EDGE('',*,*,#385,.T.);
#484=ORIENTED_EDGE('',*,*,#386,.T.);
#485=ORIENTED_EDGE('',*,*,#387,.F.);
#486=ORIENTED_EDGE('',*,*,#388,.F.);
#487=ORIENTED_EDGE('',*,*,#389,.F.);
#488=ORIENTED_EDGE('',*,*,#390,.F.);
#489=ORIENTED_EDGE('',*,*,#383,.F.);
#490=ORIENTED_EDGE('',*,*,#391,.F.);
#491=ORIENTED_EDGE('',*,*,#392,.F.);
#492=ORIENTED_EDGE('',*,*,#379,.F.);
#493=ORIENTED_EDGE('',*,*,#393,.F.);
#494=ORIENTED_EDGE('',*,*,#394,.T.);
#495=ORIENTED_EDGE('',*,*,#390,.T.);
#496=ORIENTED_EDGE('',*,*,#394,.F.);
#497=ORIENTED_EDGE('',*,*,#395,.F.);
#498=ORIENTED_EDGE('',*,*,#396,.T.);
#499=ORIENTED_EDGE('',*,*,#389,.T.);
#500=ORIENTED_EDGE('',*,*,#396,.F.);
#501=ORIENTED_EDGE('',*,*,#397,.F.);
#502=ORIENTED_EDGE('',*,*,#398,.T.);
#503=ORIENTED_EDGE('',*,*,#388,.T.);
#504=ORIENTED_EDGE('',*,*,#398,.F.);
#505=ORIENTED_EDGE('',*,*,#399,.F.);
#506=ORIENTED_EDGE('',*,*,#400,.T.);
#507=ORIENTED_EDGE('',*,*,#387,.T.);
#508=ORIENTED_EDGE('',*,*,#400,.F.);
#509=ORIENTED_EDGE('',*,*,#401,.F.);
#510=ORIENTED_EDGE('',*,*,#376,.F.);
#511=ORIENTED_EDGE('',*,*,#384,.F.);
#512=ORIENTED_EDGE('',*,*,#402,.T.);
#513=ORIENTED_EDGE('',*,*,#403,.F.);
#514=ORIENTED_EDGE('',*,*,#402,.F.);
#515=ORIENTED_EDGE('',*,*,#386,.F.);
#516=ORIENTED_EDGE('',*,*,#404,.T.);
#517=ORIENTED_EDGE('',*,*,#405,.F.);
#518=ORIENTED_EDGE('',*,*,#404,.F.);
#519=ORIENTED_EDGE('',*,*,#385,.F.);
#520=ORIENTED_EDGE('',*,*,#374,.T.);
#521=ORIENTED_EDGE('',*,*,#406,.F.);
#522=ORIENTED_EDGE('',*,*,#380,.F.);
#523=ORIENTED_EDGE('',*,*,#392,.T.);
#524=ORIENTED_EDGE('',*,*,#407,.T.);
#525=ORIENTED_EDGE('',*,*,#408,.F.);
#526=ORIENTED_EDGE('',*,*,#407,.F.);
#527=ORIENTED_EDGE('',*,*,#391,.T.);
#528=ORIENTED_EDGE('',*,*,#382,.T.);
#529=ORIENTED_EDGE('',*,*,#405,.T.);
#530=ORIENTED_EDGE('',*,*,#373,.T.);
#531=ORIENTED_EDGE('',*,*,#401,.T.);
#532=ORIENTED_EDGE('',*,*,#403,.T.);
#533=ORIENTED_EDGE('',*,*,#406,.T.);
#534=ORIENTED_EDGE('',*,*,#408,.T.);
#535=ORIENTED_EDGE('',*,*,#381,.T.);
#536=ORIENTED_EDGE('',*,*,#377,.T.);
#537=ORIENTED_EDGE('',*,*,#399,.T.);
#538=ORIENTED_EDGE('',*,*,#397,.T.);
#539=ORIENTED_EDGE('',*,*,#395,.T.);
#540=ORIENTED_EDGE('',*,*,#393,.T.);
#541=ORIENTED_EDGE('',*,*,#409,.F.);
#542=ORIENTED_EDGE('',*,*,#410,.F.);
#543=ORIENTED_EDGE('',*,*,#411,.F.);
#544=ORIENTED_EDGE('',*,*,#412,.T.);
#545=ORIENTED_EDGE('',*,*,#413,.F.);
#546=ORIENTED_EDGE('',*,*,#414,.F.);
#547=ORIENTED_EDGE('',*,*,#415,.F.);
#548=ORIENTED_EDGE('',*,*,#416,.F.);
#549=ORIENTED_EDGE('',*,*,#417,.F.);
#550=ORIENTED_EDGE('',*,*,#418,.T.);
#551=ORIENTED_EDGE('',*,*,#419,.F.);
#552=ORIENTED_EDGE('',*,*,#420,.F.);
#553=ORIENTED_EDGE('',*,*,#421,.F.);
#554=ORIENTED_EDGE('',*,*,#422,.F.);
#555=ORIENTED_EDGE('',*,*,#423,.F.);
#556=ORIENTED_EDGE('',*,*,#424,.F.);
#557=ORIENTED_EDGE('',*,*,#415,.T.);
#558=ORIENTED_EDGE('',*,*,#425,.T.);
#559=ORIENTED_EDGE('',*,*,#426,.T.);
#560=ORIENTED_EDGE('',*,*,#427,.F.);
#561=ORIENTED_EDGE('',*,*,#414,.T.);
#562=ORIENTED_EDGE('',*,*,#428,.T.);
#563=ORIENTED_EDGE('',*,*,#429,.T.);
#564=ORIENTED_EDGE('',*,*,#425,.F.);
#565=ORIENTED_EDGE('',*,*,#413,.T.);
#566=ORIENTED_EDGE('',*,*,#430,.T.);
#567=ORIENTED_EDGE('',*,*,#431,.T.);
#568=ORIENTED_EDGE('',*,*,#428,.F.);
#569=ORIENTED_EDGE('',*,*,#411,.T.);
#570=ORIENTED_EDGE('',*,*,#432,.T.);
#571=ORIENTED_EDGE('',*,*,#433,.F.);
#572=ORIENTED_EDGE('',*,*,#434,.T.);
#573=ORIENTED_EDGE('',*,*,#410,.T.);
#574=ORIENTED_EDGE('',*,*,#435,.T.);
#575=ORIENTED_EDGE('',*,*,#436,.F.);
#576=ORIENTED_EDGE('',*,*,#432,.F.);
#577=ORIENTED_EDGE('',*,*,#419,.T.);
#578=ORIENTED_EDGE('',*,*,#437,.T.);
#579=ORIENTED_EDGE('',*,*,#438,.F.);
#580=ORIENTED_EDGE('',*,*,#439,.F.);
#581=ORIENTED_EDGE('',*,*,#417,.T.);
#582=ORIENTED_EDGE('',*,*,#440,.T.);
#583=ORIENTED_EDGE('',*,*,#441,.T.);
#584=ORIENTED_EDGE('',*,*,#442,.T.);
#585=ORIENTED_EDGE('',*,*,#409,.T.);
#586=ORIENTED_EDGE('',*,*,#443,.T.);
#587=ORIENTED_EDGE('',*,*,#444,.F.);
#588=ORIENTED_EDGE('',*,*,#435,.F.);
#589=ORIENTED_EDGE('',*,*,#420,.T.);
#590=ORIENTED_EDGE('',*,*,#439,.T.);
#591=ORIENTED_EDGE('',*,*,#445,.F.);
#592=ORIENTED_EDGE('',*,*,#443,.F.);
#593=ORIENTED_EDGE('',*,*,#416,.T.);
#594=ORIENTED_EDGE('',*,*,#427,.T.);
#595=ORIENTED_EDGE('',*,*,#446,.T.);
#596=ORIENTED_EDGE('',*,*,#440,.F.);
#597=ORIENTED_EDGE('',*,*,#430,.F.);
#598=ORIENTED_EDGE('',*,*,#412,.F.);
#599=ORIENTED_EDGE('',*,*,#434,.F.);
#600=ORIENTED_EDGE('',*,*,#447,.F.);
#601=ORIENTED_EDGE('',*,*,#448,.F.);
#602=ORIENTED_EDGE('',*,*,#449,.F.);
#603=ORIENTED_EDGE('',*,*,#450,.F.);
#604=ORIENTED_EDGE('',*,*,#441,.F.);
#605=ORIENTED_EDGE('',*,*,#446,.F.);
#606=ORIENTED_EDGE('',*,*,#426,.F.);
#607=ORIENTED_EDGE('',*,*,#429,.F.);
#608=ORIENTED_EDGE('',*,*,#431,.F.);
#609=ORIENTED_EDGE('',*,*,#449,.T.);
#610=ORIENTED_EDGE('',*,*,#451,.F.);
#611=ORIENTED_EDGE('',*,*,#452,.F.);
#612=ORIENTED_EDGE('',*,*,#453,.F.);
#613=ORIENTED_EDGE('',*,*,#454,.T.);
#614=ORIENTED_EDGE('',*,*,#455,.T.);
#615=ORIENTED_EDGE('',*,*,#456,.T.);
#616=ORIENTED_EDGE('',*,*,#457,.T.);
#617=ORIENTED_EDGE('',*,*,#447,.T.);
#618=ORIENTED_EDGE('',*,*,#433,.T.);
#619=ORIENTED_EDGE('',*,*,#436,.T.);
#620=ORIENTED_EDGE('',*,*,#444,.T.);
#621=ORIENTED_EDGE('',*,*,#445,.T.);
#622=ORIENTED_EDGE('',*,*,#438,.T.);
#623=ORIENTED_EDGE('',*,*,#458,.T.);
#624=ORIENTED_EDGE('',*,*,#459,.T.);
#625=ORIENTED_EDGE('',*,*,#460,.T.);
#626=ORIENTED_EDGE('',*,*,#461,.T.);
#627=ORIENTED_EDGE('',*,*,#448,.T.);
#628=ORIENTED_EDGE('',*,*,#457,.F.);
#629=ORIENTED_EDGE('',*,*,#462,.F.);
#630=ORIENTED_EDGE('',*,*,#451,.T.);
#631=ORIENTED_EDGE('',*,*,#461,.F.);
#632=ORIENTED_EDGE('',*,*,#463,.T.);
#633=ORIENTED_EDGE('',*,*,#424,.T.);
#634=ORIENTED_EDGE('',*,*,#463,.F.);
#635=ORIENTED_EDGE('',*,*,#460,.F.);
#636=ORIENTED_EDGE('',*,*,#464,.T.);
#637=ORIENTED_EDGE('',*,*,#423,.T.);
#638=ORIENTED_EDGE('',*,*,#464,.F.);
#639=ORIENTED_EDGE('',*,*,#459,.F.);
#640=ORIENTED_EDGE('',*,*,#465,.T.);
#641=ORIENTED_EDGE('',*,*,#422,.T.);
#642=ORIENTED_EDGE('',*,*,#465,.F.);
#643=ORIENTED_EDGE('',*,*,#458,.F.);
#644=ORIENTED_EDGE('',*,*,#466,.T.);
#645=ORIENTED_EDGE('',*,*,#421,.T.);
#646=ORIENTED_EDGE('',*,*,#466,.F.);
#647=ORIENTED_EDGE('',*,*,#450,.T.);
#648=ORIENTED_EDGE('',*,*,#467,.T.);
#649=ORIENTED_EDGE('',*,*,#454,.F.);
#650=ORIENTED_EDGE('',*,*,#437,.F.);
#651=ORIENTED_EDGE('',*,*,#418,.F.);
#652=ORIENTED_EDGE('',*,*,#442,.F.);
#653=ORIENTED_EDGE('',*,*,#453,.T.);
#654=ORIENTED_EDGE('',*,*,#468,.T.);
#655=ORIENTED_EDGE('',*,*,#455,.F.);
#656=ORIENTED_EDGE('',*,*,#467,.F.);
#657=ORIENTED_EDGE('',*,*,#452,.T.);
#658=ORIENTED_EDGE('',*,*,#462,.T.);
#659=ORIENTED_EDGE('',*,*,#456,.F.);
#660=ORIENTED_EDGE('',*,*,#468,.F.);
#661=PLANE('',#742);
#662=PLANE('',#743);
#663=PLANE('',#744);
#664=PLANE('',#745);
#665=PLANE('',#750);
#666=PLANE('',#759);
#667=PLANE('',#760);
#668=PLANE('',#761);
#669=PLANE('',#762);
#670=PLANE('',#763);
#671=PLANE('',#764);
#672=PLANE('',#765);
#673=PLANE('',#770);
#674=PLANE('',#771);
#675=PLANE('',#772);
#676=PLANE('',#773);
#677=PLANE('',#774);
#678=PLANE('',#775);
#679=PLANE('',#776);
#680=PLANE('',#777);
#681=PLANE('',#778);
#682=PLANE('',#779);
#683=PLANE('',#780);
#684=PLANE('',#781);
#685=PLANE('',#782);
#686=PLANE('',#787);
#687=PLANE('',#792);
#688=PLANE('',#793);
#689=PLANE('',#794);
#690=ADVANCED_FACE('',(#58),#661,.T.);
#691=ADVANCED_FACE('',(#59),#662,.T.);
#692=ADVANCED_FACE('',(#60),#663,.T.);
#693=ADVANCED_FACE('',(#61,#25,#26,#27,#28),#664,.F.);
#694=ADVANCED_FACE('',(#62),#665,.T.);
#695=ADVANCED_FACE('',(#63),#17,.F.);
#696=ADVANCED_FACE('',(#64),#18,.F.);
#697=ADVANCED_FACE('',(#65),#19,.F.);
#698=ADVANCED_FACE('',(#66),#20,.F.);
#699=ADVANCED_FACE('',(#67),#666,.T.);
#700=ADVANCED_FACE('',(#68),#667,.T.);
#701=ADVANCED_FACE('',(#69),#668,.T.);
#702=ADVANCED_FACE('',(#70),#669,.T.);
#703=ADVANCED_FACE('',(#71),#670,.T.);
#704=ADVANCED_FACE('',(#72,#29,#30,#31,#32,#33),#671,.T.);
#705=ADVANCED_FACE('',(#73,#34,#35,#36,#37),#672,.F.);
#706=ADVANCED_FACE('',(#74),#673,.T.);
#707=ADVANCED_FACE('',(#75),#674,.T.);
#708=ADVANCED_FACE('',(#76),#675,.T.);
#709=ADVANCED_FACE('',(#77),#676,.T.);
#710=ADVANCED_FACE('',(#78),#677,.T.);
#711=ADVANCED_FACE('',(#79),#678,.T.);
#712=ADVANCED_FACE('',(#80),#679,.T.);
#713=ADVANCED_FACE('',(#81),#680,.T.);
#714=ADVANCED_FACE('',(#82),#681,.T.);
#715=ADVANCED_FACE('',(#83),#682,.T.);
#716=ADVANCED_FACE('',(#84),#683,.F.);
#717=ADVANCED_FACE('',(#85),#684,.F.);
#718=ADVANCED_FACE('',(#86,#38,#39,#40,#41),#685,.T.);
#719=ADVANCED_FACE('',(#87),#686,.T.);
#720=ADVANCED_FACE('',(#88),#21,.F.);
#721=ADVANCED_FACE('',(#89),#22,.F.);
#722=ADVANCED_FACE('',(#90),#23,.F.);
#723=ADVANCED_FACE('',(#91),#24,.F.);
#724=ADVANCED_FACE('',(#92),#687,.T.);
#725=ADVANCED_FACE('',(#93),#688,.T.);
#726=ADVANCED_FACE('',(#94),#689,.T.);
#727=CLOSED_SHELL('',(#690,#691,#692,#693,#694,#695,#696,#697,#698,#699,
#700,#701,#702,#703,#704));
#728=CLOSED_SHELL('',(#705,#706,#707,#708,#709,#710,#711,#712,#713,#714,
#715,#716,#717,#718,#719,#720,#721,#722,#723,#724,#725,#726));
#729=DERIVED_UNIT_ELEMENT(#731,1.);
#730=DERIVED_UNIT_ELEMENT(#1186,-3.);
#731=(
MASS_UNIT()
NAMED_UNIT(*)
SI_UNIT(.KILO.,.GRAM.)
);
#732=DERIVED_UNIT((#729,#730));
#733=MEASURE_REPRESENTATION_ITEM('density measure',
POSITIVE_RATIO_MEASURE(7850.),#732);
#734=PROPERTY_DEFINITION_REPRESENTATION(#739,#736);
#735=PROPERTY_DEFINITION_REPRESENTATION(#740,#737);
#736=REPRESENTATION('material name',(#738),#1183);
#737=REPRESENTATION('density',(#733),#1183);
#738=DESCRIPTIVE_REPRESENTATION_ITEM('Steel','Steel');
#739=PROPERTY_DEFINITION('material property','material name',#1193);
#740=PROPERTY_DEFINITION('material property','density of part',#1193);
#741=AXIS2_PLACEMENT_3D('',#983,#795,#796);
#742=AXIS2_PLACEMENT_3D('',#984,#797,#798);
#743=AXIS2_PLACEMENT_3D('',#993,#803,#804);
#744=AXIS2_PLACEMENT_3D('',#1002,#809,#810);
#745=AXIS2_PLACEMENT_3D('',#1008,#814,#815);
#746=AXIS2_PLACEMENT_3D('',#1015,#819,#820);
#747=AXIS2_PLACEMENT_3D('',#1017,#821,#822);
#748=AXIS2_PLACEMENT_3D('',#1019,#823,#824);
#749=AXIS2_PLACEMENT_3D('',#1021,#825,#826);
#750=AXIS2_PLACEMENT_3D('',#1022,#827,#828);
#751=AXIS2_PLACEMENT_3D('',#1026,#831,#832);
#752=AXIS2_PLACEMENT_3D('',#1028,#833,#834);
#753=AXIS2_PLACEMENT_3D('',#1030,#836,#837);
#754=AXIS2_PLACEMENT_3D('',#1032,#838,#839);
#755=AXIS2_PLACEMENT_3D('',#1034,#841,#842);
#756=AXIS2_PLACEMENT_3D('',#1036,#843,#844);
#757=AXIS2_PLACEMENT_3D('',#1038,#846,#847);
#758=AXIS2_PLACEMENT_3D('',#1040,#848,#849);
#759=AXIS2_PLACEMENT_3D('',#1042,#851,#852);
#760=AXIS2_PLACEMENT_3D('',#1046,#855,#856);
#761=AXIS2_PLACEMENT_3D('',#1050,#859,#860);
#762=AXIS2_PLACEMENT_3D('',#1052,#862,#863);
#763=AXIS2_PLACEMENT_3D('',#1056,#866,#867);
#764=AXIS2_PLACEMENT_3D('',#1058,#869,#870);
#765=AXIS2_PLACEMENT_3D('',#1059,#871,#872);
#766=AXIS2_PLACEMENT_3D('',#1085,#885,#886);
#767=AXIS2_PLACEMENT_3D('',#1087,#887,#888);
#768=AXIS2_PLACEMENT_3D('',#1089,#889,#890);
#769=AXIS2_PLACEMENT_3D('',#1091,#891,#892);
#770=AXIS2_PLACEMENT_3D('',#1092,#893,#894);
#771=AXIS2_PLACEMENT_3D('',#1098,#898,#899);
#772=AXIS2_PLACEMENT_3D('',#1102,#902,#903);
#773=AXIS2_PLACEMENT_3D('',#1106,#906,#907);
#774=AXIS2_PLACEMENT_3D('',#1112,#911,#912);
#775=AXIS2_PLACEMENT_3D('',#1116,#915,#916);
#776=AXIS2_PLACEMENT_3D('',#1122,#920,#921);
#777=AXIS2_PLACEMENT_3D('',#1128,#925,#926);
#778=AXIS2_PLACEMENT_3D('',#1132,#929,#930);
#779=AXIS2_PLACEMENT_3D('',#1134,#932,#933);
#780=AXIS2_PLACEMENT_3D('',#1136,#935,#936);
#781=AXIS2_PLACEMENT_3D('',#1142,#940,#941);
#782=AXIS2_PLACEMENT_3D('',#1150,#946,#947);
#783=AXIS2_PLACEMENT_3D('',#1159,#952,#953);
#784=AXIS2_PLACEMENT_3D('',#1161,#954,#955);
#785=AXIS2_PLACEMENT_3D('',#1163,#956,#957);
#786=AXIS2_PLACEMENT_3D('',#1165,#958,#959);
#787=AXIS2_PLACEMENT_3D('',#1166,#960,#961);
#788=AXIS2_PLACEMENT_3D('',#1168,#963,#964);
#789=AXIS2_PLACEMENT_3D('',#1170,#966,#967);
#790=AXIS2_PLACEMENT_3D('',#1172,#969,#970);
#791=AXIS2_PLACEMENT_3D('',#1174,#972,#973);
#792=AXIS2_PLACEMENT_3D('',#1176,#975,#976);
#793=AXIS2_PLACEMENT_3D('',#1178,#978,#979);
#794=AXIS2_PLACEMENT_3D('',#1180,#981,#982);
#795=DIRECTION('axis',(0.,0.,1.));
#796=DIRECTION('refdir',(1.,0.,0.));
#797=DIRECTION('center_axis',(-1.,0.,0.));
#798=DIRECTION('ref_axis',(0.,0.,1.));
#799=DIRECTION('',(0.,0.,1.));
#800=DIRECTION('',(0.,1.,0.));
#801=DIRECTION('',(0.,0.,-1.));
#802=DIRECTION('',(0.,1.,0.));
#803=DIRECTION('center_axis',(1.,0.,0.));
#804=DIRECTION('ref_axis',(0.,0.,-1.));
#805=DIRECTION('',(0.,0.,-1.));
#806=DIRECTION('',(0.,1.,0.));
#807=DIRECTION('',(0.,0.,-1.));
#808=DIRECTION('',(0.,1.,0.));
#809=DIRECTION('center_axis',(0.,0.,-1.));
#810=DIRECTION('ref_axis',(-1.,0.,0.));
#811=DIRECTION('',(-1.,0.,0.));
#812=DIRECTION('',(0.,1.,0.));
#813=DIRECTION('',(-1.,0.,0.));
#814=DIRECTION('center_axis',(0.,1.,0.));
#815=DIRECTION('ref_axis',(1.,0.,0.));
#816=DIRECTION('',(-1.,0.,0.));
#817=DIRECTION('',(1.,0.,0.));
#818=DIRECTION('',(0.,0.,1.));
#819=DIRECTION('center_axis',(0.,-1.,0.));
#820=DIRECTION('ref_axis',(1.,0.,0.));
#821=DIRECTION('center_axis',(0.,-1.,0.));
#822=DIRECTION('ref_axis',(1.,0.,0.));
#823=DIRECTION('center_axis',(0.,-1.,0.));
#824=DIRECTION('ref_axis',(1.,0.,0.));
#825=DIRECTION('center_axis',(0.,-1.,0.));
#826=DIRECTION('ref_axis',(1.,0.,0.));
#827=DIRECTION('center_axis',(0.,1.,0.));
#828=DIRECTION('ref_axis',(1.,0.,0.));
#829=DIRECTION('',(-3.56698160522139E-17,0.,1.));
#830=DIRECTION('',(1.,0.,0.));
#831=DIRECTION('center_axis',(0.,1.,0.));
#832=DIRECTION('ref_axis',(1.,0.,0.));
#833=DIRECTION('center_axis',(0.,-1.,0.));
#834=DIRECTION('ref_axis',(1.,0.,0.));
#835=DIRECTION('',(0.,-1.,0.));
#836=DIRECTION('center_axis',(0.,1.,0.));
#837=DIRECTION('ref_axis',(1.,0.,0.));
#838=DIRECTION('center_axis',(0.,-1.,0.));
#839=DIRECTION('ref_axis',(1.,0.,0.));
#840=DIRECTION('',(0.,-1.,0.));
#841=DIRECTION('center_axis',(0.,1.,0.));
#842=DIRECTION('ref_axis',(1.,0.,0.));
#843=DIRECTION('center_axis',(0.,-1.,0.));
#844=DIRECTION('ref_axis',(1.,0.,0.));
#845=DIRECTION('',(0.,-1.,0.));
#846=DIRECTION('center_axis',(0.,1.,0.));
#847=DIRECTION('ref_axis',(1.,0.,0.));
#848=DIRECTION('center_axis',(0.,-1.,0.));
#849=DIRECTION('ref_axis',(1.,0.,0.));
#850=DIRECTION('',(0.,-1.,0.));
#851=DIRECTION('center_axis',(0.,0.,1.));
#852=DIRECTION('ref_axis',(1.,0.,0.));
#853=DIRECTION('',(1.,0.,0.));
#854=DIRECTION('',(0.,1.,0.));
#855=DIRECTION('center_axis',(1.,0.,0.));
#856=DIRECTION('ref_axis',(0.,0.,-1.));
#857=DIRECTION('',(0.,0.,-1.));
#858=DIRECTION('',(0.,1.,0.));
#859=DIRECTION('center_axis',(0.,0.,-1.));
#860=DIRECTION('ref_axis',(-1.,0.,0.));
#861=DIRECTION('',(-1.,0.,0.));
#862=DIRECTION('center_axis',(0.,0.,1.));
#863=DIRECTION('ref_axis',(1.,0.,0.));
#864=DIRECTION('',(1.,0.,0.));
#865=DIRECTION('',(0.,1.,0.));
#866=DIRECTION('center_axis',(-1.,0.,-3.56698160522139E-17));
#867=DIRECTION('ref_axis',(-3.56698160522139E-17,0.,1.));
#868=DIRECTION('',(-3.56698160522139E-17,0.,1.));
#869=DIRECTION('center_axis',(0.,1.,0.));
#870=DIRECTION('ref_axis',(0.,0.,1.));
#871=DIRECTION('center_axis',(0.,1.,0.));
#872=DIRECTION('ref_axis',(0.,0.,1.));
#873=DIRECTION('',(1.,0.,0.));
#874=DIRECTION('',(0.,0.,1.));
#875=DIRECTION('',(-1.,0.,0.));
#876=DIRECTION('',(0.,0.,1.));
#877=DIRECTION('',(1.,0.,0.));
#878=DIRECTION('',(0.,0.,-1.));
#879=DIRECTION('',(-1.,0.,0.));
#880=DIRECTION('',(-3.56698160522139E-17,0.,1.));
#881=DIRECTION('',(1.,0.,0.));
#882=DIRECTION('',(0.,0.,-1.));
#883=DIRECTION('',(-1.,0.,0.));
#884=DIRECTION('',(0.,0.,-1.));
#885=DIRECTION('center_axis',(0.,-1.,0.));
#886=DIRECTION('ref_axis',(1.,0.,0.));
#887=DIRECTION('center_axis',(0.,-1.,0.));
#888=DIRECTION('ref_axis',(1.,0.,0.));
#889=DIRECTION('center_axis',(0.,-1.,0.));
#890=DIRECTION('ref_axis',(1.,0.,0.));
#891=DIRECTION('center_axis',(0.,-1.,0.));
#892=DIRECTION('ref_axis',(1.,0.,0.));
#893=DIRECTION('center_axis',(0.,0.,-1.));
#894=DIRECTION('ref_axis',(-1.,0.,0.));
#895=DIRECTION('',(0.,1.,0.));
#896=DIRECTION('',(1.,0.,0.));
#897=DIRECTION('',(0.,1.,0.));
#898=DIRECTION('center_axis',(1.,0.,0.));
#899=DIRECTION('ref_axis',(0.,0.,-1.));
#900=DIRECTION('',(0.,1.,0.));
#901=DIRECTION('',(0.,0.,1.));
#902=DIRECTION('center_axis',(0.,0.,1.));
#903=DIRECTION('ref_axis',(1.,0.,0.));
#904=DIRECTION('',(0.,1.,0.));
#905=DIRECTION('',(-1.,0.,0.));
#906=DIRECTION('center_axis',(0.,0.,-1.));
#907=DIRECTION('ref_axis',(-1.,0.,0.));
#908=DIRECTION('',(0.,1.,0.));
#909=DIRECTION('',(-1.,0.,0.));
#910=DIRECTION('',(0.,-1.,0.));
#911=DIRECTION('center_axis',(-1.,0.,0.));
#912=DIRECTION('ref_axis',(0.,0.,1.));
#913=DIRECTION('',(0.,1.,0.));
#914=DIRECTION('',(0.,0.,1.));
#915=DIRECTION('center_axis',(0.,0.,-1.));
#916=DIRECTION('ref_axis',(-1.,0.,0.));
#917=DIRECTION('',(0.,1.,0.));
#918=DIRECTION('',(-1.,0.,0.));
#919=DIRECTION('',(0.,1.,0.));
#920=DIRECTION('center_axis',(0.,0.,1.));
#921=DIRECTION('ref_axis',(1.,0.,0.));
#922=DIRECTION('',(0.,1.,0.));
#923=DIRECTION('',(-1.,0.,0.));
#924=DIRECTION('',(0.,-1.,0.));
#925=DIRECTION('center_axis',(0.,0.,1.));
#926=DIRECTION('ref_axis',(1.,0.,0.));
#927=DIRECTION('',(0.,1.,0.));
#928=DIRECTION('',(1.,0.,0.));
#929=DIRECTION('center_axis',(1.,0.,0.));
#930=DIRECTION('ref_axis',(0.,0.,-1.));
#931=DIRECTION('',(0.,0.,-1.));
#932=DIRECTION('center_axis',(-1.,0.,-3.56698160522139E-17));
#933=DIRECTION('ref_axis',(-3.56698160522139E-17,0.,1.));
#934=DIRECTION('',(3.56698160522139E-17,0.,-1.));
#935=DIRECTION('center_axis',(-1.,0.,0.));
#936=DIRECTION('ref_axis',(0.,0.,-1.));
#937=DIRECTION('',(0.,0.,-1.));
#938=DIRECTION('',(0.,1.,0.));
#939=DIRECTION('',(0.,0.,1.));
#940=DIRECTION('center_axis',(0.,1.,0.));
#941=DIRECTION('ref_axis',(0.,0.,1.));
#942=DIRECTION('',(0.,0.,1.));
#943=DIRECTION('',(1.,0.,0.));
#944=DIRECTION('',(0.,0.,-1.));
#945=DIRECTION('',(-1.,0.,0.));
#946=DIRECTION('center_axis',(0.,1.,0.));
#947=DIRECTION('ref_axis',(0.,0.,1.));
#948=DIRECTION('',(0.,0.,1.));
#949=DIRECTION('',(-1.,0.,0.));
#950=DIRECTION('',(0.,0.,-1.));
#951=DIRECTION('',(1.,0.,0.));
#952=DIRECTION('center_axis',(0.,-1.,0.));
#953=DIRECTION('ref_axis',(1.,0.,0.));
#954=DIRECTION('center_axis',(0.,-1.,0.));
#955=DIRECTION('ref_axis',(1.,0.,0.));
#956=DIRECTION('center_axis',(0.,-1.,0.));
#957=DIRECTION('ref_axis',(1.,0.,0.));
#958=DIRECTION('center_axis',(0.,-1.,0.));
#959=DIRECTION('ref_axis',(1.,0.,0.));
#960=DIRECTION('center_axis',(0.,0.,1.));
#961=DIRECTION('ref_axis',(1.,0.,0.));
#962=DIRECTION('',(0.,1.,0.));
#963=DIRECTION('center_axis',(0.,1.,0.));
#964=DIRECTION('ref_axis',(1.,0.,0.));
#965=DIRECTION('',(0.,-1.,0.));
#966=DIRECTION('center_axis',(0.,1.,0.));
#967=DIRECTION('ref_axis',(1.,0.,0.));
#968=DIRECTION('',(0.,-1.,0.));
#969=DIRECTION('center_axis',(0.,1.,0.));
#970=DIRECTION('ref_axis',(1.,0.,0.));
#971=DIRECTION('',(0.,-1.,0.));
#972=DIRECTION('center_axis',(0.,1.,0.));
#973=DIRECTION('ref_axis',(1.,0.,0.));
#974=DIRECTION('',(0.,-1.,0.));
#975=DIRECTION('center_axis',(-1.,0.,0.));
#976=DIRECTION('ref_axis',(0.,0.,1.));
#977=DIRECTION('',(0.,1.,0.));
#978=DIRECTION('center_axis',(0.,0.,-1.));
#979=DIRECTION('ref_axis',(-1.,0.,0.));
#980=DIRECTION('',(0.,1.,0.));
#981=DIRECTION('center_axis',(1.,0.,0.));
#982=DIRECTION('ref_axis',(0.,0.,-1.));
#983=CARTESIAN_POINT('',(0.,0.,0.));
#984=CARTESIAN_POINT('Origin',(-49.0755907424254,0.,-30.5112074633565));
#985=CARTESIAN_POINT('',(-49.0755907424254,8.,-30.5112074633565));
#986=CARTESIAN_POINT('',(-49.0755907424254,8.,51.7387925366435));
#987=CARTESIAN_POINT('',(-49.0755907424254,8.,-9.94870746335652));
#988=CARTESIAN_POINT('',(-49.0755907424254,0.,-30.5112074633565));
#989=CARTESIAN_POINT('',(-49.0755907424254,0.,-30.5112074633565));
#990=CARTESIAN_POINT('',(-49.0755907424254,0.,51.7387925366435));
#991=CARTESIAN_POINT('',(-49.0755907424254,0.,51.7387925366435));
#992=CARTESIAN_POINT('',(-49.0755907424254,0.,51.7387925366435));
#993=CARTESIAN_POINT('Origin',(-39.0755907424254,0.,41.7387925366435));
#994=CARTESIAN_POINT('',(-39.0755907424254,8.,41.7387925366435));
#995=CARTESIAN_POINT('',(-39.0755907424254,8.,-20.5112074633565));
#996=CARTESIAN_POINT('',(-39.0755907424254,8.,26.1762925366435));
#997=CARTESIAN_POINT('',(-39.0755907424254,3.,41.7387925366435));
#998=CARTESIAN_POINT('',(-39.0755907424254,0.,41.7387925366435));
#999=CARTESIAN_POINT('',(-39.0755907424254,3.,-20.5112074633565));
#1000=CARTESIAN_POINT('',(-39.0755907424254,3.,-4.94870746335652));
#1001=CARTESIAN_POINT('',(-39.0755907424254,0.,-20.5112074633565));
#1002=CARTESIAN_POINT('Origin',(18.6744092575746,0.,41.7387925366435));
#1003=CARTESIAN_POINT('',(18.6744092575746,8.,41.7387925366435));
#1004=CARTESIAN_POINT('',(4.23690925757463,8.,41.7387925366435));
#1005=CARTESIAN_POINT('',(18.6744092575746,3.,41.7387925366435));
#1006=CARTESIAN_POINT('',(18.6744092575746,0.,41.7387925366435));
#1007=CARTESIAN_POINT('',(-24.6380907424254,3.,41.7387925366435));
#1008=CARTESIAN_POINT('Origin',(-10.2005907424254,0.,10.6137925366435));
#1009=CARTESIAN_POINT('',(28.6744092575746,0.,51.7387925366435));
#1010=CARTESIAN_POINT('',(28.6744092575746,0.,51.7387925366435));
#1011=CARTESIAN_POINT('',(28.6744092575746,0.,-30.5112074633565));
#1012=CARTESIAN_POINT('',(-49.0755907424254,0.,-30.5112074633565));
#1013=CARTESIAN_POINT('',(28.6744092575746,0.,-30.5112074633565));
#1014=CARTESIAN_POINT('',(22.2244092575746,0.,-25.5112074633565));
#1015=CARTESIAN_POINT('Origin',(23.6744092575746,0.,-25.5112074633565));
#1016=CARTESIAN_POINT('',(22.2244092575746,0.,46.7387925366435));
#1017=CARTESIAN_POINT('Origin',(23.6744092575746,0.,46.7387925366435));
#1018=CARTESIAN_POINT('',(-45.5255907424254,0.,-25.5112074633565));
#1019=CARTESIAN_POINT('Origin',(-44.0755907424254,0.,-25.5112074633565));
#1020=CARTESIAN_POINT('',(-45.5255907424254,0.,46.7387925366435));
#1021=CARTESIAN_POINT('Origin',(-44.0755907424254,0.,46.7387925366435));
#1022=CARTESIAN_POINT('Origin',(-10.2005907424254,3.,10.6137925366435));
#1023=CARTESIAN_POINT('',(18.6744092575746,3.,-20.5112074633565));
#1024=CARTESIAN_POINT('',(18.6744092575746,3.,26.1762925366435));
#1025=CARTESIAN_POINT('',(4.23690925757463,3.,-20.5112074633565));
#1026=CARTESIAN_POINT('Origin',(-44.0755907424254,0.,46.7387925366435));
#1027=CARTESIAN_POINT('',(-45.5255907424254,8.,46.7387925366435));
#1028=CARTESIAN_POINT('Origin',(-44.0755907424254,8.,46.7387925366435));
#1029=CARTESIAN_POINT('',(-45.5255907424254,0.,46.7387925366435));
#1030=CARTESIAN_POINT('Origin',(-44.0755907424254,0.,-25.5112074633565));
#1031=CARTESIAN_POINT('',(-45.5255907424254,8.,-25.5112074633565));
#1032=CARTESIAN_POINT('Origin',(-44.0755907424254,8.,-25.5112074633565));
#1033=CARTESIAN_POINT('',(-45.5255907424254,0.,-25.5112074633565));
#1034=CARTESIAN_POINT('Origin',(23.6744092575746,0.,46.7387925366435));
#1035=CARTESIAN_POINT('',(22.2244092575746,8.,46.7387925366435));
#1036=CARTESIAN_POINT('Origin',(23.6744092575746,8.,46.7387925366435));
#1037=CARTESIAN_POINT('',(22.2244092575746,0.,46.7387925366435));
#1038=CARTESIAN_POINT('Origin',(23.6744092575746,0.,-25.5112074633565));
#1039=CARTESIAN_POINT('',(22.2244092575746,8.,-25.5112074633565));
#1040=CARTESIAN_POINT('Origin',(23.6744092575746,8.,-25.5112074633565));
#1041=CARTESIAN_POINT('',(22.2244092575746,0.,-25.5112074633565));
#1042=CARTESIAN_POINT('Origin',(-49.0755907424254,0.,51.7387925366435));
#1043=CARTESIAN_POINT('',(28.6744092575746,8.,51.7387925366435));
#1044=CARTESIAN_POINT('',(-29.6380907424254,8.,51.7387925366435));
#1045=CARTESIAN_POINT('',(28.6744092575746,0.,51.7387925366435));
#1046=CARTESIAN_POINT('Origin',(28.6744092575746,0.,51.7387925366435));
#1047=CARTESIAN_POINT('',(28.6744092575746,8.,-30.5112074633565));
#1048=CARTESIAN_POINT('',(28.6744092575746,8.,31.1762925366435));
#1049=CARTESIAN_POINT('',(28.6744092575746,0.,-30.5112074633565));
#1050=CARTESIAN_POINT('Origin',(28.6744092575746,0.,-30.5112074633565));
#1051=CARTESIAN_POINT('',(9.23690925757463,8.,-30.5112074633565));
#1052=CARTESIAN_POINT('Origin',(-39.0755907424254,0.,-20.5112074633565));
#1053=CARTESIAN_POINT('',(18.6744092575746,8.,-20.5112074633565));
#1054=CARTESIAN_POINT('',(-24.6380907424254,8.,-20.5112074633565));
#1055=CARTESIAN_POINT('',(18.6744092575746,0.,-20.5112074633565));
#1056=CARTESIAN_POINT('Origin',(18.6744092575746,0.,-20.5112074633565));
#1057=CARTESIAN_POINT('',(18.6744092575746,8.,-4.94870746335651));
#1058=CARTESIAN_POINT('Origin',(-10.2005907424254,8.,10.6137925366435));
#1059=CARTESIAN_POINT('Origin',(119.799409257575,8.,10.6137925366435));
#1060=CARTESIAN_POINT('',(80.9244092575746,8.,51.7387925366435));
#1061=CARTESIAN_POINT('',(158.674409257575,8.,51.7387925366435));
#1062=CARTESIAN_POINT('',(100.361909257575,8.,51.7387925366435));
#1063=CARTESIAN_POINT('',(80.9244092575746,8.,-30.5112074633565));
#1064=CARTESIAN_POINT('',(80.9244092575746,8.,-9.94870746335652));
#1065=CARTESIAN_POINT('',(126.52038556916,8.,-30.5112074633565));
#1066=CARTESIAN_POINT('',(139.236909257575,8.,-30.5112074633565));
#1067=CARTESIAN_POINT('',(126.52038556916,8.,-20.5112074633565));
#1068=CARTESIAN_POINT('',(126.52038556916,8.,-4.94870746335651));
#1069=CARTESIAN_POINT('',(90.9244092575746,8.,-20.5112074633565));
#1070=CARTESIAN_POINT('',(105.361909257575,8.,-20.5112074633565));
#1071=CARTESIAN_POINT('',(90.9244092575746,8.,41.7387925366435));
#1072=CARTESIAN_POINT('',(90.9244092575746,8.,26.1762925366435));
#1073=CARTESIAN_POINT('',(148.674409257575,8.,41.7387925366435));
#1074=CARTESIAN_POINT('',(134.236909257575,8.,41.7387925366435));
#1075=CARTESIAN_POINT('',(148.674409257575,8.,-20.5112074633565));
#1076=CARTESIAN_POINT('',(148.674409257575,8.,-4.94870746335651));
#1077=CARTESIAN_POINT('',(145.674409257575,8.,-20.5112074633565));
#1078=CARTESIAN_POINT('',(105.361909257575,8.,-20.5112074633565));
#1079=CARTESIAN_POINT('',(145.674409257575,8.,-30.5112074633565));
#1080=CARTESIAN_POINT('',(145.674409257575,8.,-9.94870746335652));
#1081=CARTESIAN_POINT('',(158.674409257575,8.,-30.5112074633565));
#1082=CARTESIAN_POINT('',(139.236909257575,8.,-30.5112074633565));
#1083=CARTESIAN_POINT('',(158.674409257575,8.,31.1762925366435));
#1084=CARTESIAN_POINT('',(84.4744092575746,8.,46.7387925366435));
#1085=CARTESIAN_POINT('Origin',(85.9244092575746,8.,46.7387925366435));
#1086=CARTESIAN_POINT('',(84.4744092575746,8.,-25.5112074633565));
#1087=CARTESIAN_POINT('Origin',(85.9244092575746,8.,-25.5112074633565));
#1088=CARTESIAN_POINT('',(152.224409257575,8.,46.7387925366435));
#1089=CARTESIAN_POINT('Origin',(153.674409257575,8.,46.7387925366435));
#1090=CARTESIAN_POINT('',(152.224409257575,8.,-25.5112074633565));
#1091=CARTESIAN_POINT('Origin',(153.674409257575,8.,-25.5112074633565));
#1092=CARTESIAN_POINT('Origin',(148.674409257575,0.,41.7387925366435));
#1093=CARTESIAN_POINT('',(90.9244092575746,10.,41.7387925366435));
#1094=CARTESIAN_POINT('',(90.9244092575746,0.,41.7387925366435));
#1095=CARTESIAN_POINT('',(148.674409257575,10.,41.7387925366435));
#1096=CARTESIAN_POINT('',(105.361909257575,10.,41.7387925366435));
#1097=CARTESIAN_POINT('',(148.674409257575,0.,41.7387925366435));
#1098=CARTESIAN_POINT('Origin',(90.9244092575746,0.,41.7387925366435));
#1099=CARTESIAN_POINT('',(90.9244092575746,10.,-20.5112074633565));
#1100=CARTESIAN_POINT('',(90.9244092575746,0.,-20.5112074633565));
#1101=CARTESIAN_POINT('',(90.9244092575746,10.,-4.94870746335652));
#1102=CARTESIAN_POINT('Origin',(90.9244092575746,0.,-20.5112074633565));
#1103=CARTESIAN_POINT('',(126.52038556916,10.,-20.5112074633565));
#1104=CARTESIAN_POINT('',(126.52038556916,8.,-20.5112074633565));
#1105=CARTESIAN_POINT('',(134.236909257575,10.,-20.5112074633565));
#1106=CARTESIAN_POINT('Origin',(158.674409257575,0.,-30.5112074633565));
#1107=CARTESIAN_POINT('',(80.9244092575746,16.,-30.5112074633565));
#1108=CARTESIAN_POINT('',(80.9244092575746,0.,-30.5112074633565));
#1109=CARTESIAN_POINT('',(126.52038556916,16.,-30.5112074633565));
#1110=CARTESIAN_POINT('',(80.9244092575746,16.,-30.5112074633565));
#1111=CARTESIAN_POINT('',(126.52038556916,8.,-30.5112074633565));
#1112=CARTESIAN_POINT('Origin',(80.9244092575746,0.,-30.5112074633565));
#1113=CARTESIAN_POINT('',(80.9244092575746,16.,51.7387925366435));
#1114=CARTESIAN_POINT('',(80.9244092575746,0.,51.7387925366435));
#1115=CARTESIAN_POINT('',(80.9244092575746,16.,51.7387925366435));
#1116=CARTESIAN_POINT('Origin',(158.674409257575,0.,-30.5112074633565));
#1117=CARTESIAN_POINT('',(145.674409257575,16.,-30.5112074633565));
#1118=CARTESIAN_POINT('',(145.674409257575,8.,-30.5112074633565));
#1119=CARTESIAN_POINT('',(158.674409257575,16.,-30.5112074633565));
#1120=CARTESIAN_POINT('',(80.9244092575746,16.,-30.5112074633565));
#1121=CARTESIAN_POINT('',(158.674409257575,0.,-30.5112074633565));
#1122=CARTESIAN_POINT('Origin',(90.9244092575746,0.,-20.5112074633565));
#1123=CARTESIAN_POINT('',(148.674409257575,10.,-20.5112074633565));
#1124=CARTESIAN_POINT('',(148.674409257575,0.,-20.5112074633565));
#1125=CARTESIAN_POINT('',(145.674409257575,10.,-20.5112074633565));
#1126=CARTESIAN_POINT('',(134.236909257575,10.,-20.5112074633565));
#1127=CARTESIAN_POINT('',(145.674409257575,8.,-20.5112074633565));
#1128=CARTESIAN_POINT('Origin',(80.9244092575746,0.,51.7387925366435));
#1129=CARTESIAN_POINT('',(158.674409257575,16.,51.7387925366435));
#1130=CARTESIAN_POINT('',(158.674409257575,0.,51.7387925366435));
#1131=CARTESIAN_POINT('',(158.674409257575,16.,51.7387925366435));
#1132=CARTESIAN_POINT('Origin',(158.674409257575,0.,51.7387925366435));
#1133=CARTESIAN_POINT('',(158.674409257575,16.,-30.5112074633565));
#1134=CARTESIAN_POINT('Origin',(148.674409257575,0.,-20.5112074633565));
#1135=CARTESIAN_POINT('',(148.674409257575,10.,26.1762925366435));
#1136=CARTESIAN_POINT('Origin',(126.52038556916,16.,-17.5112074633565));
#1137=CARTESIAN_POINT('',(126.52038556916,16.,-17.5112074633565));
#1138=CARTESIAN_POINT('',(126.52038556916,16.,-3.44870746335651));
#1139=CARTESIAN_POINT('',(126.52038556916,10.,-17.5112074633565));
#1140=CARTESIAN_POINT('',(126.52038556916,8.,-17.5112074633565));
#1141=CARTESIAN_POINT('',(126.52038556916,10.,-3.44870746335651));
#1142=CARTESIAN_POINT('Origin',(119.799409257575,10.,10.6137925366435));
#1143=CARTESIAN_POINT('',(145.674409257575,10.,38.7387925366435));
#1144=CARTESIAN_POINT('',(145.674409257575,10.,-3.44870746335651));
#1145=CARTESIAN_POINT('',(93.9244092575746,10.,-17.5112074633565));
#1146=CARTESIAN_POINT('',(106.861909257575,10.,-17.5112074633565));
#1147=CARTESIAN_POINT('',(93.9244092575746,10.,38.7387925366435));
#1148=CARTESIAN_POINT('',(93.9244092575746,10.,24.6762925366435));
#1149=CARTESIAN_POINT('',(132.736909257575,10.,38.7387925366435));
#1150=CARTESIAN_POINT('Origin',(119.799409257575,16.,10.6137925366435));
#1151=CARTESIAN_POINT('',(145.674409257575,16.,38.7387925366435));
#1152=CARTESIAN_POINT('',(145.674409257575,16.,-9.94870746335652));
#1153=CARTESIAN_POINT('',(93.9244092575746,16.,38.7387925366435));
#1154=CARTESIAN_POINT('',(145.674409257575,16.,38.7387925366435));
#1155=CARTESIAN_POINT('',(93.9244092575746,16.,-17.5112074633565));
#1156=CARTESIAN_POINT('',(93.9244092575746,16.,38.7387925366435));
#1157=CARTESIAN_POINT('',(93.9244092575746,16.,-17.5112074633565));
#1158=CARTESIAN_POINT('',(84.4744092575746,16.,46.7387925366435));
#1159=CARTESIAN_POINT('Origin',(85.9244092575746,16.,46.7387925366435));
#1160=CARTESIAN_POINT('',(84.4744092575746,16.,-25.5112074633565));
#1161=CARTESIAN_POINT('Origin',(85.9244092575746,16.,-25.5112074633565));
#1162=CARTESIAN_POINT('',(152.224409257575,16.,46.7387925366435));
#1163=CARTESIAN_POINT('Origin',(153.674409257575,16.,46.7387925366435));
#1164=CARTESIAN_POINT('',(152.224409257575,16.,-25.5112074633565));
#1165=CARTESIAN_POINT('Origin',(153.674409257575,16.,-25.5112074633565));
#1166=CARTESIAN_POINT('Origin',(93.9244092575746,0.,-17.5112074633565));
#1167=CARTESIAN_POINT('',(93.9244092575746,0.,-17.5112074633565));
#1168=CARTESIAN_POINT('Origin',(153.674409257575,0.,-25.5112074633565));
#1169=CARTESIAN_POINT('',(152.224409257575,0.,-25.5112074633565));
#1170=CARTESIAN_POINT('Origin',(153.674409257575,0.,46.7387925366435));
#1171=CARTESIAN_POINT('',(152.224409257575,0.,46.7387925366435));
#1172=CARTESIAN_POINT('Origin',(85.9244092575746,0.,-25.5112074633565));
#1173=CARTESIAN_POINT('',(84.4744092575746,0.,-25.5112074633565));
#1174=CARTESIAN_POINT('Origin',(85.9244092575746,0.,46.7387925366435));
#1175=CARTESIAN_POINT('',(84.4744092575746,0.,46.7387925366435));
#1176=CARTESIAN_POINT('Origin',(145.674409257575,0.,-17.5112074633565));
#1177=CARTESIAN_POINT('',(145.674409257575,0.,38.7387925366435));
#1178=CARTESIAN_POINT('Origin',(145.674409257575,0.,38.7387925366435));
#1179=CARTESIAN_POINT('',(93.9244092575746,0.,38.7387925366435));
#1180=CARTESIAN_POINT('Origin',(93.9244092575746,0.,38.7387925366435));
#1181=UNCERTAINTY_MEASURE_WITH_UNIT(LENGTH_MEASURE(0.01),#1185,
'DISTANCE_ACCURACY_VALUE',
'Maximum model space distance between geometric entities at asserted c
onnectivities');
#1182=UNCERTAINTY_MEASURE_WITH_UNIT(LENGTH_MEASURE(0.01),#1185,
'DISTANCE_ACCURACY_VALUE',
'Maximum model space distance between geometric entities at asserted c
onnectivities');
#1183=(
GEOMETRIC_REPRESENTATION_CONTEXT(3)
GLOBAL_UNCERTAINTY_ASSIGNED_CONTEXT((#1181))
GLOBAL_UNIT_ASSIGNED_CONTEXT((#1185,#1187,#1188))
REPRESENTATION_CONTEXT('','3D')
);
#1184=(
GEOMETRIC_REPRESENTATION_CONTEXT(3)
GLOBAL_UNCERTAINTY_ASSIGNED_CONTEXT((#1182))
GLOBAL_UNIT_ASSIGNED_CONTEXT((#1185,#1187,#1188))
REPRESENTATION_CONTEXT('','3D')
);
#1185=(
LENGTH_UNIT()
NAMED_UNIT(*)
SI_UNIT(.MILLI.,.METRE.)
);
#1186=(
LENGTH_UNIT()
NAMED_UNIT(*)
SI_UNIT($,.METRE.)
);
#1187=(
NAMED_UNIT(*)
PLANE_ANGLE_UNIT()
SI_UNIT($,.RADIAN.)
);
#1188=(
NAMED_UNIT(*)
SI_UNIT($,.STERADIAN.)
SOLID_ANGLE_UNIT()
);
#1189=SHAPE_DEFINITION_REPRESENTATION(#1190,#1191);
#1190=PRODUCT_DEFINITION_SHAPE('',$,#1193);
#1191=SHAPE_REPRESENTATION('',(#741),#1183);
#1192=PRODUCT_DEFINITION_CONTEXT('part definition',#1197,'design');
#1193=PRODUCT_DEFINITION('2026-05-18-20-34-42-507',
'SabhyaPad Case Render',#1194,#1192);
#1194=PRODUCT_DEFINITION_FORMATION('',$,#1199);
#1195=PRODUCT_RELATED_PRODUCT_CATEGORY('SabhyaPad Case Render',
'SabhyaPad Case Render',(#1199));
#1196=APPLICATION_PROTOCOL_DEFINITION('international standard',
'automotive_design',2009,#1197);
#1197=APPLICATION_CONTEXT(
'Core Data for Automotive Mechanical Design Process');
#1198=PRODUCT_CONTEXT('part definition',#1197,'mechanical');
#1199=PRODUCT('2026-05-18-20-34-42-507','SabhyaPad Case Render',$,(#1198));
#1200=PRESENTATION_STYLE_ASSIGNMENT((#1201));
#1201=SURFACE_STYLE_USAGE(.BOTH.,#1202);
#1202=SURFACE_SIDE_STYLE('',(#1203));
#1203=SURFACE_STYLE_FILL_AREA(#1204);
#1204=FILL_AREA_STYLE('Steel - Satin',(#1205));
#1205=FILL_AREA_STYLE_COLOUR('Steel - Satin',#1206);
#1206=COLOUR_RGB('Steel - Satin',0.627450980392157,0.627450980392157,0.627450980392157);
ENDSEC;
END-ISO-10303-21;
