M48
; DRILL file KiCad 10.0.2 date 2026-05-24T17:48:53
; FORMAT={-:-/ absolute / metric / decimal}
; #@! TF.CreationDate,2026-05-24T17:48:53+05:30
; #@! TF.GenerationSoftware,Kicad,Pcbnew,10.0.2
; #@! TF.FileFunction,Plated,1,2,PTH
FMAT,2
METRIC
; #@! TA.AperFunction,Plated,PTH,ComponentDrill
T1C1.000
; #@! TA.AperFunction,Plated,PTH,ComponentDrill
T2C1.500
%
G90
G05
T1
X119.64Y-66.66
X119.64Y-69.2
X119.64Y-71.74
X119.64Y-74.28
X119.64Y-76.82
X119.64Y-79.36
X119.64Y-81.9
X134.89Y-66.66
X134.89Y-69.2
X134.89Y-71.74
X134.89Y-74.28
X134.89Y-76.82
X134.89Y-79.36
X134.89Y-81.9
T2
X87.675Y-94.315
X87.675Y-113.355
X94.025Y-91.775
X94.025Y-110.815
X106.725Y-94.315
X106.725Y-113.355
X113.075Y-91.775
X113.075Y-110.815
X125.765Y-113.365
X125.77Y-94.32
X132.115Y-110.825
X132.12Y-91.78
M30
