%TF.GenerationSoftware,KiCad,Pcbnew,10.0.2*%
%TF.CreationDate,2026-05-24T17:48:56+05:30*%
%TF.ProjectId,SabhyaPad-Fallout,53616268-7961-4506-9164-2d46616c6c6f,rev?*%
%TF.SameCoordinates,Original*%
%TF.FileFunction,Soldermask,Bot*%
%TF.FilePolarity,Negative*%
%FSLAX46Y46*%
G04 Gerber Fmt 4.6, Leading zero omitted, Abs format (unit mm)*
G04 Created by KiCad (PCBNEW 10.0.2) date 2026-05-24 17:48:56*
%MOMM*%
%LPD*%
G01*
G04 APERTURE LIST*
%ADD10R,3.500000X1.700000*%
%ADD11O,3.600000X1.700000*%
%ADD12O,3.700000X1.700000*%
%ADD13C,1.700000*%
%ADD14C,4.000000*%
%ADD15C,2.200000*%
G04 APERTURE END LIST*
D10*
%TO.C,U1*%
X118640000Y-66660000D03*
D11*
X118640000Y-69200000D03*
X118640000Y-71740000D03*
X118640000Y-74280000D03*
X118640000Y-76820000D03*
X118640000Y-79360000D03*
X118640000Y-81900000D03*
X135890000Y-81900000D03*
X135890000Y-79360000D03*
X135890000Y-76820000D03*
D12*
X135890000Y-74280000D03*
X135890000Y-71740000D03*
X135890000Y-69200000D03*
X135890000Y-66660000D03*
%TD*%
D13*
%TO.C,SW6*%
X124500000Y-96860000D03*
D14*
X129580000Y-96860000D03*
D13*
X134660000Y-96860000D03*
D15*
X132120000Y-91780000D03*
X125770000Y-94320000D03*
%TD*%
D13*
%TO.C,SW5*%
X124495000Y-115905000D03*
D14*
X129575000Y-115905000D03*
D13*
X134655000Y-115905000D03*
D15*
X132115000Y-110825000D03*
X125765000Y-113365000D03*
%TD*%
D13*
%TO.C,SW1*%
X86405000Y-96855000D03*
D14*
X91485000Y-96855000D03*
D13*
X96565000Y-96855000D03*
D15*
X94025000Y-91775000D03*
X87675000Y-94315000D03*
%TD*%
D13*
%TO.C,SW4*%
X105455000Y-115895000D03*
D14*
X110535000Y-115895000D03*
D13*
X115615000Y-115895000D03*
D15*
X113075000Y-110815000D03*
X106725000Y-113355000D03*
%TD*%
D13*
%TO.C,SW3*%
X86405000Y-115895000D03*
D14*
X91485000Y-115895000D03*
D13*
X96565000Y-115895000D03*
D15*
X94025000Y-110815000D03*
X87675000Y-113355000D03*
%TD*%
D13*
%TO.C,SW2*%
X105455000Y-96855000D03*
D14*
X110535000Y-96855000D03*
D13*
X115615000Y-96855000D03*
D15*
X113075000Y-91775000D03*
X106725000Y-94315000D03*
%TD*%
M02*
